<svg width="1920" height="1920" viewBox="0 0 1920 1920" fill="none" xmlns="http://www.w3.org/2000/svg">
<rect width="1920" height="1920" fill="#1A2E4A"/>
<g clip-path="url(#clip0_4_78)">
<path d="M960 320C606.522 320 320 606.522 320 960C320 1313.48 606.522 1600 960 1600C1313.48 1600 1600 1313.48 1600 960C1600 606.522 1313.44 320 960 320ZM960 1595.04C609.26 1595.04 324.961 1310.7 324.961 960C324.961 609.3 609.26 324.961 960 324.961C1310.74 324.961 1595.04 609.26 1595.04 960C1595.04 1310.74 1310.7 1595.04 960 1595.04Z" fill="url(#paint0_radial_4_78)"/>
<path d="M960 320C606.522 320 320 606.522 320 960C320 1313.48 606.522 1600 960 1600C1313.48 1600 1600 1313.48 1600 960C1600 606.522 1313.44 320 960 320ZM960 1595.04C609.26 1595.04 324.961 1310.7 324.961 960C324.961 609.3 609.26 324.961 960 324.961C1310.74 324.961 1595.04 609.26 1595.04 960C1595.04 1310.74 1310.7 1595.04 960 1595.04Z" fill="#F5A623"/>
<path d="M960 503.566C707.89 503.566 503.566 707.929 503.566 960C503.566 1212.07 707.89 1416.43 960 1416.43C1212.11 1416.43 1416.43 1212.07 1416.43 960C1416.43 707.929 1212.07 503.566 960 503.566ZM960 1406.51C713.367 1406.51 513.488 1206.59 513.488 960C513.488 713.406 713.367 513.488 960 513.488C1206.63 513.488 1406.51 713.406 1406.51 960C1406.51 1206.59 1206.59 1406.51 960 1406.51Z" fill="url(#paint1_radial_4_78)"/>
<path d="M960 503.566C707.89 503.566 503.566 707.929 503.566 960C503.566 1212.07 707.89 1416.43 960 1416.43C1212.11 1416.43 1416.43 1212.07 1416.43 960C1416.43 707.929 1212.07 503.566 960 503.566ZM960 1406.51C713.367 1406.51 513.488 1206.59 513.488 960C513.488 713.406 713.367 513.488 960 513.488C1206.63 513.488 1406.51 713.406 1406.51 960C1406.51 1206.59 1206.59 1406.51 960 1406.51Z" fill="#F5A623"/>
<path d="M960 682.171C806.559 682.171 682.171 806.559 682.171 960C682.171 1113.44 806.559 1237.83 960 1237.83C1113.44 1237.83 1237.83 1113.44 1237.83 960C1237.83 806.559 1113.44 682.171 960 682.171ZM960 1217.98C817.513 1217.98 702.016 1102.49 702.016 960C702.016 817.513 817.513 702.016 960 702.016C1102.49 702.016 1217.98 817.513 1217.98 960C1217.98 1102.49 1102.45 1217.98 960 1217.98Z" fill="url(#paint2_radial_4_78)"/>
<path d="M960 682.171C806.559 682.171 682.171 806.559 682.171 960C682.171 1113.44 806.559 1237.83 960 1237.83C1113.44 1237.83 1237.83 1113.44 1237.83 960C1237.83 806.559 1113.44 682.171 960 682.171ZM960 1217.98C817.513 1217.98 702.016 1102.49 702.016 960C702.016 817.513 817.513 702.016 960 702.016C1102.49 702.016 1217.98 817.513 1217.98 960C1217.98 1102.49 1102.45 1217.98 960 1217.98Z" fill="#F5A623"/>
<path d="M1079.07 960C1079.07 1025.77 1025.73 1079.07 960 1079.07C894.273 1079.07 840.93 1025.77 840.93 960C840.93 894.234 894.234 840.93 960 840.93C1025.77 840.93 1079.07 894.234 1079.07 960Z" fill="url(#paint3_radial_4_78)"/>
<path d="M1079.07 960C1079.07 1025.77 1025.73 1079.07 960 1079.07C894.273 1079.07 840.93 1025.77 840.93 960C840.93 894.234 894.234 840.93 960 840.93C1025.77 840.93 1079.07 894.234 1079.07 960Z" fill="#F5A623"/>
<path d="M960 503.566C707.89 503.566 503.566 707.929 503.566 960C503.566 1212.07 707.89 1416.43 960 1416.43C1212.11 1416.43 1416.43 1212.07 1416.43 960C1416.43 707.929 1212.07 503.566 960 503.566ZM960 1406.51C713.367 1406.51 513.488 1206.59 513.488 960C513.488 713.406 713.367 513.488 960 513.488C1206.63 513.488 1406.51 713.406 1406.51 960C1406.51 1206.59 1206.59 1406.51 960 1406.51Z" fill="url(#paint4_radial_4_78)"/>
<path d="M960 503.566C707.89 503.566 503.566 707.929 503.566 960C503.566 1212.07 707.89 1416.43 960 1416.43C1212.11 1416.43 1416.43 1212.07 1416.43 960C1416.43 707.929 1212.07 503.566 960 503.566ZM960 1406.51C713.367 1406.51 513.488 1206.59 513.488 960C513.488 713.406 713.367 513.488 960 513.488C1206.63 513.488 1406.51 713.406 1406.51 960C1406.51 1206.59 1206.59 1406.51 960 1406.51Z" fill="#F5A623"/>
<path d="M960 682.171C806.559 682.171 682.171 806.559 682.171 960C682.171 1113.44 806.559 1237.83 960 1237.83C1113.44 1237.83 1237.83 1113.44 1237.83 960C1237.83 806.559 1113.44 682.171 960 682.171ZM960 1217.98C817.513 1217.98 702.016 1102.49 702.016 960C702.016 817.513 817.513 702.016 960 702.016C1102.49 702.016 1217.98 817.513 1217.98 960C1217.98 1102.49 1102.45 1217.98 960 1217.98Z" fill="url(#paint5_radial_4_78)"/>
<path d="M960 682.171C806.559 682.171 682.171 806.559 682.171 960C682.171 1113.44 806.559 1237.83 960 1237.83C1113.44 1237.83 1237.83 1113.44 1237.83 960C1237.83 806.559 1113.44 682.171 960 682.171ZM960 1217.98C817.513 1217.98 702.016 1102.49 702.016 960C702.016 817.513 817.513 702.016 960 702.016C1102.49 702.016 1217.98 817.513 1217.98 960C1217.98 1102.49 1102.45 1217.98 960 1217.98Z" fill="#F5A623"/>
<path d="M1079.07 960C1079.07 1025.77 1025.73 1079.07 960 1079.07C894.273 1079.07 840.93 1025.77 840.93 960C840.93 894.234 894.234 840.93 960 840.93C1025.77 840.93 1079.07 894.234 1079.07 960Z" fill="url(#paint6_radial_4_78)"/>
<path d="M1079.07 960C1079.07 1025.77 1025.73 1079.07 960 1079.07C894.273 1079.07 840.93 1025.77 840.93 960C840.93 894.234 894.234 840.93 960 840.93C1025.77 840.93 1079.07 894.234 1079.07 960Z" fill="#F5A623"/>
<path d="M960 503.566C707.89 503.566 503.566 707.929 503.566 960C503.566 1212.07 707.89 1416.43 960 1416.43C1212.11 1416.43 1416.43 1212.07 1416.43 960C1416.43 707.929 1212.07 503.566 960 503.566ZM960 1406.51C713.367 1406.51 513.488 1206.59 513.488 960C513.488 713.406 713.367 513.488 960 513.488C1206.63 513.488 1406.51 713.406 1406.51 960C1406.51 1206.59 1206.59 1406.51 960 1406.51Z" fill="url(#paint7_radial_4_78)"/>
<path d="M960 503.566C707.89 503.566 503.566 707.929 503.566 960C503.566 1212.07 707.89 1416.43 960 1416.43C1212.11 1416.43 1416.43 1212.07 1416.43 960C1416.43 707.929 1212.07 503.566 960 503.566ZM960 1406.51C713.367 1406.51 513.488 1206.59 513.488 960C513.488 713.406 713.367 513.488 960 513.488C1206.63 513.488 1406.51 713.406 1406.51 960C1406.51 1206.59 1206.59 1406.51 960 1406.51Z" fill="#F5A623"/>
<path d="M960 682.171C806.559 682.171 682.171 806.559 682.171 960C682.171 1113.44 806.559 1237.83 960 1237.83C1113.44 1237.83 1237.83 1113.44 1237.83 960C1237.83 806.559 1113.44 682.171 960 682.171ZM960 1217.98C817.513 1217.98 702.016 1102.49 702.016 960C702.016 817.513 817.513 702.016 960 702.016C1102.49 702.016 1217.98 817.513 1217.98 960C1217.98 1102.49 1102.45 1217.98 960 1217.98Z" fill="url(#paint8_radial_4_78)"/>
<path d="M960 682.171C806.559 682.171 682.171 806.559 682.171 960C682.171 1113.44 806.559 1237.83 960 1237.83C1113.44 1237.83 1237.83 1113.44 1237.83 960C1237.83 806.559 1113.44 682.171 960 682.171ZM960 1217.98C817.513 1217.98 702.016 1102.49 702.016 960C702.016 817.513 817.513 702.016 960 702.016C1102.49 702.016 1217.98 817.513 1217.98 960C1217.98 1102.49 1102.45 1217.98 960 1217.98Z" fill="#F5A623"/>
<path d="M1079.07 960C1079.07 1025.77 1025.73 1079.07 960 1079.07C894.273 1079.07 840.93 1025.77 840.93 960C840.93 894.234 894.234 840.93 960 840.93C1025.77 840.93 1079.07 894.234 1079.07 960Z" fill="url(#paint9_radial_4_78)"/>
<path d="M1079.07 960C1079.07 1025.77 1025.73 1079.07 960 1079.07C894.273 1079.07 840.93 1025.77 840.93 960C840.93 894.234 894.234 840.93 960 840.93C1025.77 840.93 1079.07 894.234 1079.07 960Z" fill="#F5A623"/>
<path d="M960 682.171C806.559 682.171 682.171 806.559 682.171 960C682.171 1113.44 806.559 1237.83 960 1237.83C1113.44 1237.83 1237.83 1113.44 1237.83 960C1237.83 806.559 1113.44 682.171 960 682.171ZM960 1217.98C817.513 1217.98 702.016 1102.49 702.016 960C702.016 817.513 817.513 702.016 960 702.016C1102.49 702.016 1217.98 817.513 1217.98 960C1217.98 1102.49 1102.45 1217.98 960 1217.98Z" fill="url(#paint10_radial_4_78)"/>
<path d="M960 682.171C806.559 682.171 682.171 806.559 682.171 960C682.171 1113.44 806.559 1237.83 960 1237.83C1113.44 1237.83 1237.83 1113.44 1237.83 960C1237.83 806.559 1113.44 682.171 960 682.171ZM960 1217.98C817.513 1217.98 702.016 1102.49 702.016 960C702.016 817.513 817.513 702.016 960 702.016C1102.49 702.016 1217.98 817.513 1217.98 960C1217.98 1102.49 1102.45 1217.98 960 1217.98Z" fill="#F5A623"/>
<path d="M1079.07 960C1079.07 1025.77 1025.73 1079.07 960 1079.07C894.273 1079.07 840.93 1025.77 840.93 960C840.93 894.234 894.234 840.93 960 840.93C1025.77 840.93 1079.07 894.234 1079.07 960Z" fill="url(#paint11_radial_4_78)"/>
<path d="M1079.07 960C1079.07 1025.77 1025.73 1079.07 960 1079.07C894.273 1079.07 840.93 1025.77 840.93 960C840.93 894.234 894.234 840.93 960 840.93C1025.77 840.93 1079.07 894.234 1079.07 960Z" fill="#F5A623"/>
<path d="M960 682.171C806.559 682.171 682.171 806.559 682.171 960C682.171 1113.44 806.559 1237.83 960 1237.83C1113.44 1237.83 1237.83 1113.44 1237.83 960C1237.83 806.559 1113.44 682.171 960 682.171ZM960 1217.98C817.513 1217.98 702.016 1102.49 702.016 960C702.016 817.513 817.513 702.016 960 702.016C1102.49 702.016 1217.98 817.513 1217.98 960C1217.98 1102.49 1102.45 1217.98 960 1217.98Z" fill="url(#paint12_radial_4_78)"/>
<path d="M960 682.171C806.559 682.171 682.171 806.559 682.171 960C682.171 1113.44 806.559 1237.83 960 1237.83C1113.44 1237.83 1237.83 1113.44 1237.83 960C1237.83 806.559 1113.44 682.171 960 682.171ZM960 1217.98C817.513 1217.98 702.016 1102.49 702.016 960C702.016 817.513 817.513 702.016 960 702.016C1102.49 702.016 1217.98 817.513 1217.98 960C1217.98 1102.49 1102.45 1217.98 960 1217.98Z" fill="#F5A623"/>
<path d="M1079.07 960C1079.07 1025.77 1025.73 1079.07 960 1079.07C894.273 1079.07 840.93 1025.77 840.93 960C840.93 894.234 894.234 840.93 960 840.93C1025.77 840.93 1079.07 894.234 1079.07 960Z" fill="url(#paint13_radial_4_78)"/>
<path d="M1079.07 960C1079.07 1025.77 1025.73 1079.07 960 1079.07C894.273 1079.07 840.93 1025.77 840.93 960C840.93 894.234 894.234 840.93 960 840.93C1025.77 840.93 1079.07 894.234 1079.07 960Z" fill="#F5A623"/>
<path d="M1079.07 960C1079.07 1025.77 1025.73 1079.07 960 1079.07C894.273 1079.07 840.93 1025.77 840.93 960C840.93 894.234 894.234 840.93 960 840.93C1025.77 840.93 1079.07 894.234 1079.07 960Z" fill="url(#paint14_radial_4_78)"/>
<path d="M1079.07 960C1079.07 1025.77 1025.73 1079.07 960 1079.07C894.273 1079.07 840.93 1025.77 840.93 960C840.93 894.234 894.234 840.93 960 840.93C1025.77 840.93 1079.07 894.234 1079.07 960Z" fill="#F5A623"/>
<path d="M1079.07 960C1079.07 1025.77 1025.73 1079.07 960 1079.07C894.273 1079.07 840.93 1025.77 840.93 960C840.93 894.234 894.234 840.93 960 840.93C1025.77 840.93 1079.07 894.234 1079.07 960Z" fill="url(#paint15_radial_4_78)"/>
<path d="M1079.07 960C1079.07 1025.77 1025.73 1079.07 960 1079.07C894.273 1079.07 840.93 1025.77 840.93 960C840.93 894.234 894.234 840.93 960 840.93C1025.77 840.93 1079.07 894.234 1079.07 960Z" fill="#F5A623"/>
</g>
<defs>
<radialGradient id="paint0_radial_4_78" cx="0" cy="0" r="1" gradientUnits="userSpaceOnUse" gradientTransform="translate(960 960) rotate(90) scale(640)">
<stop stop-color="#F5A623"/>
<stop offset="1" stop-color="#C4831A"/>
</radialGradient>
<radialGradient id="paint1_radial_4_78" cx="0" cy="0" r="1" gradientUnits="userSpaceOnUse" gradientTransform="translate(960 960) rotate(90) scale(640)">
<stop stop-color="#F5A623"/>
<stop offset="1" stop-color="#C4831A"/>
</radialGradient>
<radialGradient id="paint2_radial_4_78" cx="0" cy="0" r="1" gradientUnits="userSpaceOnUse" gradientTransform="translate(960 960) rotate(90) scale(640)">
<stop stop-color="#F5A623"/>
<stop offset="1" stop-color="#C4831A"/>
</radialGradient>
<radialGradient id="paint3_radial_4_78" cx="0" cy="0" r="1" gradientUnits="userSpaceOnUse" gradientTransform="translate(960 960) rotate(90) scale(640)">
<stop stop-color="#F5A623"/>
<stop offset="1" stop-color="#C4831A"/>
</radialGradient>
<radialGradient id="paint4_radial_4_78" cx="0" cy="0" r="1" gradientUnits="userSpaceOnUse" gradientTransform="translate(960 960) rotate(90) scale(640)">
<stop stop-color="#F5A623"/>
<stop offset="1" stop-color="#C4831A"/>
</radialGradient>
<radialGradient id="paint5_radial_4_78" cx="0" cy="0" r="1" gradientUnits="userSpaceOnUse" gradientTransform="translate(960 960) rotate(90) scale(640)">
<stop stop-color="#F5A623"/>
<stop offset="1" stop-color="#C4831A"/>
</radialGradient>
<radialGradient id="paint6_radial_4_78" cx="0" cy="0" r="1" gradientUnits="userSpaceOnUse" gradientTransform="translate(960 960) rotate(90) scale(640)">
<stop stop-color="#F5A623"/>
<stop offset="1" stop-color="#C4831A"/>
</radialGradient>
<radialGradient id="paint7_radial_4_78" cx="0" cy="0" r="1" gradientUnits="userSpaceOnUse" gradientTransform="translate(960 960) rotate(90) scale(640)">
<stop stop-color="#F5A623"/>
<stop offset="1" stop-color="#C4831A"/>
</radialGradient>
<radialGradient id="paint8_radial_4_78" cx="0" cy="0" r="1" gradientUnits="userSpaceOnUse" gradientTransform="translate(960 960) rotate(90) scale(640)">
<stop stop-color="#F5A623"/>
<stop offset="1" stop-color="#C4831A"/>
</radialGradient>
<radialGradient id="paint9_radial_4_78" cx="0" cy="0" r="1" gradientUnits="userSpaceOnUse" gradientTransform="translate(960 960) rotate(90) scale(640)">
<stop stop-color="#F5A623"/>
<stop offset="1" stop-color="#C4831A"/>
</radialGradient>
<radialGradient id="paint10_radial_4_78" cx="0" cy="0" r="1" gradientUnits="userSpaceOnUse" gradientTransform="translate(960 960) rotate(90) scale(640)">
<stop stop-color="#F5A623"/>
<stop offset="1" stop-color="#C4831A"/>
</radialGradient>
<radialGradient id="paint11_radial_4_78" cx="0" cy="0" r="1" gradientUnits="userSpaceOnUse" gradientTransform="translate(960 960) rotate(90) scale(640)">
<stop stop-color="#F5A623"/>
<stop offset="1" stop-color="#C4831A"/>
</radialGradient>
<radialGradient id="paint12_radial_4_78" cx="0" cy="0" r="1" gradientUnits="userSpaceOnUse" gradientTransform="translate(960 960) rotate(90) scale(640)">
<stop stop-color="#F5A623"/>
<stop offset="1" stop-color="#C4831A"/>
</radialGradient>
<radialGradient id="paint13_radial_4_78" cx="0" cy="0" r="1" gradientUnits="userSpaceOnUse" gradientTransform="translate(960 960) rotate(90) scale(640)">
<stop stop-color="#F5A623"/>
<stop offset="1" stop-color="#C4831A"/>
</radialGradient>
<radialGradient id="paint14_radial_4_78" cx="0" cy="0" r="1" gradientUnits="userSpaceOnUse" gradientTransform="translate(960 960) rotate(90) scale(640)">
<stop stop-color="#F5A623"/>
<stop offset="1" stop-color="#C4831A"/>
</radialGradient>
<radialGradient id="paint15_radial_4_78" cx="0" cy="0" r="1" gradientUnits="userSpaceOnUse" gradientTransform="translate(960 960) rotate(90) scale(640)">
<stop stop-color="#F5A623"/>
<stop offset="1" stop-color="#C4831A"/>
</radialGradient>
<clipPath id="clip0_4_78">
<rect width="1280" height="1280" fill="white" transform="translate(320 320)"/>
</clipPath>
</defs>
</svg>
