<svg width="1920" height="900" viewBox="0 0 1920 900" fill="none" xmlns="http://www.w3.org/2000/svg">
<rect width="1920" height="899.76" fill="#1A2E4A"/>
<g clip-path="url(#clip0_53_95)">
<path d="M449.88 256C342.798 256 256 342.798 256 449.88C256 556.962 342.798 643.76 449.88 643.76C556.962 643.76 643.76 556.962 643.76 449.88C643.76 342.798 556.95 256 449.88 256ZM449.88 642.257C343.628 642.257 257.503 556.12 257.503 449.88C257.503 343.64 343.628 257.503 449.88 257.503C556.132 257.503 642.257 343.628 642.257 449.88C642.257 556.132 556.12 642.257 449.88 642.257Z" fill="url(#paint0_radial_53_95)"/>
<path d="M449.88 256C342.798 256 256 342.798 256 449.88C256 556.962 342.798 643.76 449.88 643.76C556.962 643.76 643.76 556.962 643.76 449.88C643.76 342.798 556.95 256 449.88 256ZM449.88 642.257C343.628 642.257 257.503 556.12 257.503 449.88C257.503 343.64 343.628 257.503 449.88 257.503C556.132 257.503 642.257 343.628 642.257 449.88C642.257 556.132 556.12 642.257 449.88 642.257Z" fill="#F5A623"/>
<path d="M449.88 311.609C373.506 311.609 311.609 373.518 311.609 449.88C311.609 526.242 373.506 588.151 449.88 588.151C526.254 588.151 588.151 526.242 588.151 449.88C588.151 373.518 526.242 311.609 449.88 311.609ZM449.88 585.145C375.166 585.145 314.615 524.582 314.615 449.88C314.615 375.178 375.166 314.615 449.88 314.615C524.595 314.615 585.145 375.178 585.145 449.88C585.145 524.582 524.582 585.145 449.88 585.145Z" fill="url(#paint1_radial_53_95)"/>
<path d="M449.88 311.609C373.506 311.609 311.609 373.518 311.609 449.88C311.609 526.242 373.506 588.151 449.88 588.151C526.254 588.151 588.151 526.242 588.151 449.88C588.151 373.518 526.242 311.609 449.88 311.609ZM449.88 585.145C375.166 585.145 314.615 524.582 314.615 449.88C314.615 375.178 375.166 314.615 449.88 314.615C524.595 314.615 585.145 375.178 585.145 449.88C585.145 524.582 524.582 585.145 449.88 585.145Z" fill="#F5A623"/>
<path d="M449.88 365.715C403.397 365.715 365.715 403.397 365.715 449.88C365.715 496.363 403.397 534.045 449.88 534.045C496.363 534.045 534.045 496.363 534.045 449.88C534.045 403.397 496.363 365.715 449.88 365.715ZM449.88 528.033C406.715 528.033 371.727 493.045 371.727 449.88C371.727 406.715 406.715 371.727 449.88 371.727C493.045 371.727 528.033 406.715 528.033 449.88C528.033 493.045 493.033 528.033 449.88 528.033Z" fill="url(#paint2_radial_53_95)"/>
<path d="M449.88 365.715C403.397 365.715 365.715 403.397 365.715 449.88C365.715 496.363 403.397 534.045 449.88 534.045C496.363 534.045 534.045 496.363 534.045 449.88C534.045 403.397 496.363 365.715 449.88 365.715ZM449.88 528.033C406.715 528.033 371.727 493.045 371.727 449.88C371.727 406.715 406.715 371.727 449.88 371.727C493.045 371.727 528.033 406.715 528.033 449.88C528.033 493.045 493.033 528.033 449.88 528.033Z" fill="#F5A623"/>
<path d="M485.951 449.88C485.951 469.803 469.791 485.951 449.88 485.951C429.969 485.951 413.809 469.803 413.809 449.88C413.809 429.957 429.957 413.809 449.88 413.809C469.803 413.809 485.951 429.957 485.951 449.88Z" fill="url(#paint3_radial_53_95)"/>
<path d="M485.951 449.88C485.951 469.803 469.791 485.951 449.88 485.951C429.969 485.951 413.809 469.803 413.809 449.88C413.809 429.957 429.957 413.809 449.88 413.809C469.803 413.809 485.951 429.957 485.951 449.88Z" fill="#F5A623"/>
<path d="M449.88 311.609C373.506 311.609 311.609 373.518 311.609 449.88C311.609 526.242 373.506 588.151 449.88 588.151C526.254 588.151 588.151 526.242 588.151 449.88C588.151 373.518 526.242 311.609 449.88 311.609ZM449.88 585.145C375.166 585.145 314.615 524.582 314.615 449.88C314.615 375.178 375.166 314.615 449.88 314.615C524.595 314.615 585.145 375.178 585.145 449.88C585.145 524.582 524.582 585.145 449.88 585.145Z" fill="url(#paint4_radial_53_95)"/>
<path d="M449.88 311.609C373.506 311.609 311.609 373.518 311.609 449.88C311.609 526.242 373.506 588.151 449.88 588.151C526.254 588.151 588.151 526.242 588.151 449.88C588.151 373.518 526.242 311.609 449.88 311.609ZM449.88 585.145C375.166 585.145 314.615 524.582 314.615 449.88C314.615 375.178 375.166 314.615 449.88 314.615C524.595 314.615 585.145 375.178 585.145 449.88C585.145 524.582 524.582 585.145 449.88 585.145Z" fill="#F5A623"/>
<path d="M449.88 365.715C403.397 365.715 365.715 403.397 365.715 449.88C365.715 496.363 403.397 534.045 449.88 534.045C496.363 534.045 534.045 496.363 534.045 449.88C534.045 403.397 496.363 365.715 449.88 365.715ZM449.88 528.033C406.715 528.033 371.727 493.045 371.727 449.88C371.727 406.715 406.715 371.727 449.88 371.727C493.045 371.727 528.033 406.715 528.033 449.88C528.033 493.045 493.033 528.033 449.88 528.033Z" fill="url(#paint5_radial_53_95)"/>
<path d="M449.88 365.715C403.397 365.715 365.715 403.397 365.715 449.88C365.715 496.363 403.397 534.045 449.88 534.045C496.363 534.045 534.045 496.363 534.045 449.88C534.045 403.397 496.363 365.715 449.88 365.715ZM449.88 528.033C406.715 528.033 371.727 493.045 371.727 449.88C371.727 406.715 406.715 371.727 449.88 371.727C493.045 371.727 528.033 406.715 528.033 449.88C528.033 493.045 493.033 528.033 449.88 528.033Z" fill="#F5A623"/>
<path d="M485.951 449.88C485.951 469.803 469.791 485.951 449.88 485.951C429.969 485.951 413.809 469.803 413.809 449.88C413.809 429.957 429.957 413.809 449.88 413.809C469.803 413.809 485.951 429.957 485.951 449.88Z" fill="url(#paint6_radial_53_95)"/>
<path d="M485.951 449.88C485.951 469.803 469.791 485.951 449.88 485.951C429.969 485.951 413.809 469.803 413.809 449.88C413.809 429.957 429.957 413.809 449.88 413.809C469.803 413.809 485.951 429.957 485.951 449.88Z" fill="#F5A623"/>
<path d="M449.88 311.609C373.506 311.609 311.609 373.518 311.609 449.88C311.609 526.242 373.506 588.151 449.88 588.151C526.254 588.151 588.151 526.242 588.151 449.88C588.151 373.518 526.242 311.609 449.88 311.609ZM449.88 585.145C375.166 585.145 314.615 524.582 314.615 449.88C314.615 375.178 375.166 314.615 449.88 314.615C524.595 314.615 585.145 375.178 585.145 449.88C585.145 524.582 524.582 585.145 449.88 585.145Z" fill="url(#paint7_radial_53_95)"/>
<path d="M449.88 311.609C373.506 311.609 311.609 373.518 311.609 449.88C311.609 526.242 373.506 588.151 449.88 588.151C526.254 588.151 588.151 526.242 588.151 449.88C588.151 373.518 526.242 311.609 449.88 311.609ZM449.88 585.145C375.166 585.145 314.615 524.582 314.615 449.88C314.615 375.178 375.166 314.615 449.88 314.615C524.595 314.615 585.145 375.178 585.145 449.88C585.145 524.582 524.582 585.145 449.88 585.145Z" fill="#F5A623"/>
<path d="M449.88 365.715C403.397 365.715 365.715 403.397 365.715 449.88C365.715 496.363 403.397 534.045 449.88 534.045C496.363 534.045 534.045 496.363 534.045 449.88C534.045 403.397 496.363 365.715 449.88 365.715ZM449.88 528.033C406.715 528.033 371.727 493.045 371.727 449.88C371.727 406.715 406.715 371.727 449.88 371.727C493.045 371.727 528.033 406.715 528.033 449.88C528.033 493.045 493.033 528.033 449.88 528.033Z" fill="url(#paint8_radial_53_95)"/>
<path d="M449.88 365.715C403.397 365.715 365.715 403.397 365.715 449.88C365.715 496.363 403.397 534.045 449.88 534.045C496.363 534.045 534.045 496.363 534.045 449.88C534.045 403.397 496.363 365.715 449.88 365.715ZM449.88 528.033C406.715 528.033 371.727 493.045 371.727 449.88C371.727 406.715 406.715 371.727 449.88 371.727C493.045 371.727 528.033 406.715 528.033 449.88C528.033 493.045 493.033 528.033 449.88 528.033Z" fill="#F5A623"/>
<path d="M485.951 449.88C485.951 469.803 469.791 485.951 449.88 485.951C429.969 485.951 413.809 469.803 413.809 449.88C413.809 429.957 429.957 413.809 449.88 413.809C469.803 413.809 485.951 429.957 485.951 449.88Z" fill="url(#paint9_radial_53_95)"/>
<path d="M485.951 449.88C485.951 469.803 469.791 485.951 449.88 485.951C429.969 485.951 413.809 469.803 413.809 449.88C413.809 429.957 429.957 413.809 449.88 413.809C469.803 413.809 485.951 429.957 485.951 449.88Z" fill="#F5A623"/>
<path d="M449.88 365.715C403.397 365.715 365.715 403.397 365.715 449.88C365.715 496.363 403.397 534.045 449.88 534.045C496.363 534.045 534.045 496.363 534.045 449.88C534.045 403.397 496.363 365.715 449.88 365.715ZM449.88 528.033C406.715 528.033 371.727 493.045 371.727 449.88C371.727 406.715 406.715 371.727 449.88 371.727C493.045 371.727 528.033 406.715 528.033 449.88C528.033 493.045 493.033 528.033 449.88 528.033Z" fill="url(#paint10_radial_53_95)"/>
<path d="M449.88 365.715C403.397 365.715 365.715 403.397 365.715 449.88C365.715 496.363 403.397 534.045 449.88 534.045C496.363 534.045 534.045 496.363 534.045 449.88C534.045 403.397 496.363 365.715 449.88 365.715ZM449.88 528.033C406.715 528.033 371.727 493.045 371.727 449.88C371.727 406.715 406.715 371.727 449.88 371.727C493.045 371.727 528.033 406.715 528.033 449.88C528.033 493.045 493.033 528.033 449.88 528.033Z" fill="#F5A623"/>
<path d="M485.951 449.88C485.951 469.803 469.791 485.951 449.88 485.951C429.969 485.951 413.809 469.803 413.809 449.88C413.809 429.957 429.957 413.809 449.88 413.809C469.803 413.809 485.951 429.957 485.951 449.88Z" fill="url(#paint11_radial_53_95)"/>
<path d="M485.951 449.88C485.951 469.803 469.791 485.951 449.88 485.951C429.969 485.951 413.809 469.803 413.809 449.88C413.809 429.957 429.957 413.809 449.88 413.809C469.803 413.809 485.951 429.957 485.951 449.88Z" fill="#F5A623"/>
<path d="M449.88 365.715C403.397 365.715 365.715 403.397 365.715 449.88C365.715 496.363 403.397 534.045 449.88 534.045C496.363 534.045 534.045 496.363 534.045 449.88C534.045 403.397 496.363 365.715 449.88 365.715ZM449.88 528.033C406.715 528.033 371.727 493.045 371.727 449.88C371.727 406.715 406.715 371.727 449.88 371.727C493.045 371.727 528.033 406.715 528.033 449.88C528.033 493.045 493.033 528.033 449.88 528.033Z" fill="url(#paint12_radial_53_95)"/>
<path d="M449.88 365.715C403.397 365.715 365.715 403.397 365.715 449.88C365.715 496.363 403.397 534.045 449.88 534.045C496.363 534.045 534.045 496.363 534.045 449.88C534.045 403.397 496.363 365.715 449.88 365.715ZM449.88 528.033C406.715 528.033 371.727 493.045 371.727 449.88C371.727 406.715 406.715 371.727 449.88 371.727C493.045 371.727 528.033 406.715 528.033 449.88C528.033 493.045 493.033 528.033 449.88 528.033Z" fill="#F5A623"/>
<path d="M485.951 449.88C485.951 469.803 469.791 485.951 449.88 485.951C429.969 485.951 413.809 469.803 413.809 449.88C413.809 429.957 429.957 413.809 449.88 413.809C469.803 413.809 485.951 429.957 485.951 449.88Z" fill="url(#paint13_radial_53_95)"/>
<path d="M485.951 449.88C485.951 469.803 469.791 485.951 449.88 485.951C429.969 485.951 413.809 469.803 413.809 449.88C413.809 429.957 429.957 413.809 449.88 413.809C469.803 413.809 485.951 429.957 485.951 449.88Z" fill="#F5A623"/>
<path d="M485.951 449.88C485.951 469.803 469.791 485.951 449.88 485.951C429.969 485.951 413.809 469.803 413.809 449.88C413.809 429.957 429.957 413.809 449.88 413.809C469.803 413.809 485.951 429.957 485.951 449.88Z" fill="url(#paint14_radial_53_95)"/>
<path d="M485.951 449.88C485.951 469.803 469.791 485.951 449.88 485.951C429.969 485.951 413.809 469.803 413.809 449.88C413.809 429.957 429.957 413.809 449.88 413.809C469.803 413.809 485.951 429.957 485.951 449.88Z" fill="#F5A623"/>
<path d="M485.951 449.88C485.951 469.803 469.791 485.951 449.88 485.951C429.969 485.951 413.809 469.803 413.809 449.88C413.809 429.957 429.957 413.809 449.88 413.809C469.803 413.809 485.951 429.957 485.951 449.88Z" fill="url(#paint15_radial_53_95)"/>
<path d="M485.951 449.88C485.951 469.803 469.791 485.951 449.88 485.951C429.969 485.951 413.809 469.803 413.809 449.88C413.809 429.957 429.957 413.809 449.88 413.809C469.803 413.809 485.951 429.957 485.951 449.88Z" fill="#F5A623"/>
</g>
<path d="M827.32 370.759H858.203L915.777 527.38H884.453L869.894 488.335H815.187L800.849 527.38H769.525L827.32 370.759ZM864.379 466.938L842.761 402.304L820.261 466.938H864.379ZM1107.89 500.688V527.38H999.134V370.759H1105.9V397.451H1029.58V435.172H1095.53V459.879H1029.58V500.688H1107.89ZM1064.43 357.524L1045.46 351.788L1057.37 325.538H1084.94L1064.43 357.524ZM1197.8 527.38V370.759H1228.24V500.688H1308.09V527.38H1197.8Z" fill="white"/>
<path d="M1396.11 527.38V370.759H1411.55V527.38H1396.11ZM1580.09 528.483C1569.06 528.483 1559.06 526.277 1550.09 521.865C1541.12 517.453 1533.4 511.497 1526.93 503.997C1520.46 496.35 1515.46 487.82 1511.93 478.408C1508.4 468.849 1506.63 459.07 1506.63 449.07C1506.63 438.628 1508.47 428.702 1512.15 419.29C1515.82 409.731 1520.97 401.275 1527.59 393.921C1534.35 386.421 1542.22 380.539 1551.19 376.274C1560.16 371.862 1569.87 369.656 1580.31 369.656C1591.34 369.656 1601.34 371.936 1610.31 376.495C1619.28 381.054 1626.93 387.157 1633.25 394.804C1639.72 402.451 1644.72 410.981 1648.25 420.393C1651.78 429.805 1653.55 439.437 1653.55 449.29C1653.55 459.732 1651.71 469.732 1648.03 479.291C1644.36 488.703 1639.21 497.159 1632.59 504.659C1625.97 512.012 1618.18 517.821 1609.21 522.086C1600.24 526.35 1590.53 528.483 1580.09 528.483ZM1522.07 449.07C1522.07 457.599 1523.47 465.835 1526.27 473.776C1529.06 481.57 1533.03 488.556 1538.18 494.732C1543.32 500.762 1549.43 505.615 1556.49 509.291C1563.69 512.821 1571.56 514.586 1580.09 514.586C1589.06 514.586 1597.08 512.747 1604.13 509.071C1611.34 505.247 1617.44 500.247 1622.44 494.07C1627.59 487.747 1631.49 480.688 1634.13 472.894C1636.78 465.099 1638.11 457.158 1638.11 449.07C1638.11 440.54 1636.71 432.378 1633.91 424.584C1631.12 416.79 1627.08 409.804 1621.78 403.628C1616.63 397.451 1610.53 392.598 1603.47 389.068C1596.41 385.539 1588.62 383.774 1580.09 383.774C1571.27 383.774 1563.25 385.612 1556.05 389.289C1548.99 392.966 1542.88 397.966 1537.74 404.289C1532.74 410.466 1528.84 417.451 1526.04 425.246C1523.4 433.04 1522.07 440.981 1522.07 449.07Z" fill="#F5A623"/>
<defs>
<radialGradient id="paint0_radial_53_95" cx="0" cy="0" r="1" gradientUnits="userSpaceOnUse" gradientTransform="translate(449.88 449.88) rotate(90) scale(193.88)">
<stop stop-color="#F5A623"/>
<stop offset="1" stop-color="#C4831A"/>
</radialGradient>
<radialGradient id="paint1_radial_53_95" cx="0" cy="0" r="1" gradientUnits="userSpaceOnUse" gradientTransform="translate(449.88 449.88) rotate(90) scale(193.88)">
<stop stop-color="#F5A623"/>
<stop offset="1" stop-color="#C4831A"/>
</radialGradient>
<radialGradient id="paint2_radial_53_95" cx="0" cy="0" r="1" gradientUnits="userSpaceOnUse" gradientTransform="translate(449.88 449.88) rotate(90) scale(193.88)">
<stop stop-color="#F5A623"/>
<stop offset="1" stop-color="#C4831A"/>
</radialGradient>
<radialGradient id="paint3_radial_53_95" cx="0" cy="0" r="1" gradientUnits="userSpaceOnUse" gradientTransform="translate(449.88 449.88) rotate(90) scale(193.88)">
<stop stop-color="#F5A623"/>
<stop offset="1" stop-color="#C4831A"/>
</radialGradient>
<radialGradient id="paint4_radial_53_95" cx="0" cy="0" r="1" gradientUnits="userSpaceOnUse" gradientTransform="translate(449.88 449.88) rotate(90) scale(193.88)">
<stop stop-color="#F5A623"/>
<stop offset="1" stop-color="#C4831A"/>
</radialGradient>
<radialGradient id="paint5_radial_53_95" cx="0" cy="0" r="1" gradientUnits="userSpaceOnUse" gradientTransform="translate(449.88 449.88) rotate(90) scale(193.88)">
<stop stop-color="#F5A623"/>
<stop offset="1" stop-color="#C4831A"/>
</radialGradient>
<radialGradient id="paint6_radial_53_95" cx="0" cy="0" r="1" gradientUnits="userSpaceOnUse" gradientTransform="translate(449.88 449.88) rotate(90) scale(193.88)">
<stop stop-color="#F5A623"/>
<stop offset="1" stop-color="#C4831A"/>
</radialGradient>
<radialGradient id="paint7_radial_53_95" cx="0" cy="0" r="1" gradientUnits="userSpaceOnUse" gradientTransform="translate(449.88 449.88) rotate(90) scale(193.88)">
<stop stop-color="#F5A623"/>
<stop offset="1" stop-color="#C4831A"/>
</radialGradient>
<radialGradient id="paint8_radial_53_95" cx="0" cy="0" r="1" gradientUnits="userSpaceOnUse" gradientTransform="translate(449.88 449.88) rotate(90) scale(193.88)">
<stop stop-color="#F5A623"/>
<stop offset="1" stop-color="#C4831A"/>
</radialGradient>
<radialGradient id="paint9_radial_53_95" cx="0" cy="0" r="1" gradientUnits="userSpaceOnUse" gradientTransform="translate(449.88 449.88) rotate(90) scale(193.88)">
<stop stop-color="#F5A623"/>
<stop offset="1" stop-color="#C4831A"/>
</radialGradient>
<radialGradient id="paint10_radial_53_95" cx="0" cy="0" r="1" gradientUnits="userSpaceOnUse" gradientTransform="translate(449.88 449.88) rotate(90) scale(193.88)">
<stop stop-color="#F5A623"/>
<stop offset="1" stop-color="#C4831A"/>
</radialGradient>
<radialGradient id="paint11_radial_53_95" cx="0" cy="0" r="1" gradientUnits="userSpaceOnUse" gradientTransform="translate(449.88 449.88) rotate(90) scale(193.88)">
<stop stop-color="#F5A623"/>
<stop offset="1" stop-color="#C4831A"/>
</radialGradient>
<radialGradient id="paint12_radial_53_95" cx="0" cy="0" r="1" gradientUnits="userSpaceOnUse" gradientTransform="translate(449.88 449.88) rotate(90) scale(193.88)">
<stop stop-color="#F5A623"/>
<stop offset="1" stop-color="#C4831A"/>
</radialGradient>
<radialGradient id="paint13_radial_53_95" cx="0" cy="0" r="1" gradientUnits="userSpaceOnUse" gradientTransform="translate(449.88 449.88) rotate(90) scale(193.88)">
<stop stop-color="#F5A623"/>
<stop offset="1" stop-color="#C4831A"/>
</radialGradient>
<radialGradient id="paint14_radial_53_95" cx="0" cy="0" r="1" gradientUnits="userSpaceOnUse" gradientTransform="translate(449.88 449.88) rotate(90) scale(193.88)">
<stop stop-color="#F5A623"/>
<stop offset="1" stop-color="#C4831A"/>
</radialGradient>
<radialGradient id="paint15_radial_53_95" cx="0" cy="0" r="1" gradientUnits="userSpaceOnUse" gradientTransform="translate(449.88 449.88) rotate(90) scale(193.88)">
<stop stop-color="#F5A623"/>
<stop offset="1" stop-color="#C4831A"/>
</radialGradient>
<clipPath id="clip0_53_95">
<rect width="387.76" height="387.76" fill="white" transform="translate(256 256)"/>
</clipPath>
</defs>
</svg>
