<svg width="1745" height="599" viewBox="0 0 1745 599" fill="none" xmlns="http://www.w3.org/2000/svg">
    <path d="M169.74 287.5C84.18 287.5 22.08 228.16 22.08 144.9C22.08 61.6399 84.18 2.2999 169.74 2.2999C255.3 2.2999 316.94 61.6399 316.94 144.9C316.94 228.16 255.3 287.5 169.74 287.5ZM169.74 269.56C229.08 269.56 265.42 220.34 265.42 144.9C265.42 69.4599 229.08 20.2399 169.74 20.2399C110.4 20.2399 74.06 69.4599 74.06 144.9C74.06 220.34 110.4 269.56 169.74 269.56ZM573.753 6.89989V24.8399H474.853V282.9H427.473V24.8399H329.033V6.89989H573.753ZM836.097 6.89989V24.8399H737.197V282.9H689.817V24.8399H591.377V6.89989H836.097ZM995.853 287.5C910.293 287.5 848.193 228.16 848.193 144.9C848.193 61.6399 910.293 2.2999 995.853 2.2999C1081.41 2.2999 1143.05 61.6399 1143.05 144.9C1143.05 228.16 1081.41 287.5 995.853 287.5ZM995.853 269.56C1055.19 269.56 1091.53 220.34 1091.53 144.9C1091.53 69.4599 1055.19 20.2399 995.853 20.2399C936.513 20.2399 900.173 69.4599 900.173 144.9C900.173 220.34 936.513 269.56 995.853 269.56ZM1421.94 6.89989H1440.34V289.8H1429.76L1223.68 73.5999V282.9H1205.28V-0.000102043H1215.86L1421.94 216.66V6.89989ZM1712.03 6.89989H1733.65L1636.13 168.82V282.9H1588.75V168.82L1489.85 6.89989H1545.97L1628.31 147.2L1712.03 6.89989Z" fill="white"/>
    <path d="M593.208 469.3C624.225 469.3 642.16 485.125 642.16 510.445C642.16 535.765 624.225 551.59 593.208 551.59H564.09V595.9H542.146V469.3H593.208ZM587.933 543.361C608.611 543.361 619.583 531.756 619.583 510.445C619.583 489.134 608.611 477.529 587.933 477.529H564.09V543.361H587.933ZM782.689 595.9L766.653 560.663H706.307L690.06 595.9H680.776L741.755 466.135H746.397L807.165 595.9H797.881L782.689 595.9Z" fill="white"/>
</svg>