<svg width="123" height="36" viewBox="0 0 123 36" fill="none" xmlns="http://www.w3.org/2000/svg">
<path d="M49.7347 10.6449H34.794C33.9787 10.6449 33.2549 11.0306 32.8006 11.627L32.7987 11.6297L30.8132 14.2361L30.8051 14.2468L25.3364 21.4256L25.3283 21.4365C25.0175 21.8454 24.8335 22.3532 24.8335 22.9034C24.8335 24.2574 25.9483 25.355 27.3236 25.355H42.2643C43.0796 25.355 43.8034 24.9693 44.2577 24.3729L44.2655 24.3627L51.7192 14.5778C51.7192 14.5778 51.7209 14.5756 51.7216 14.5744L51.73 14.5635L51.7359 14.5557C51.7359 14.5557 51.7371 14.5543 51.7376 14.5536C52.0438 14.1463 52.2248 13.6424 52.2248 13.0966C52.2248 11.7425 51.11 10.6449 49.7347 10.6449ZM42.9289 13.5864L42.4414 14.2264L42.4399 14.2284L42.421 14.2531L42.4175 14.2579L36.9683 21.4113L36.9356 21.4541L35.4627 23.3876L35.4585 23.3932C35.3072 23.592 35.0657 23.7206 34.794 23.7206C34.3355 23.7206 33.9639 23.3547 33.9639 22.9034C33.9639 22.7196 34.0254 22.5501 34.1294 22.4135L34.1334 22.4084L40.1011 14.5744L40.1166 14.554L41.5993 12.6075L41.5998 12.6067C41.7511 12.4079 41.9926 12.2794 42.2643 12.2794C42.7228 12.2794 43.0944 12.6452 43.0944 13.0966C43.0944 13.2804 43.0329 13.4499 42.9289 13.5864Z" fill="#FF5C00" fill-opacity="0.2" stroke="#FF5C00"/>
<path d="M121.659 8C121.659 8.46025 121.285 8.83333 120.824 8.83333H119.153C118.343 8.83333 117.622 9.21679 117.164 9.81185C117.153 9.82617 117.142 9.84074 117.131 9.85556L115.649 11.8272L115.64 11.838L113.642 14.4958L110.637 18.4923L110.636 18.4938L110.628 18.5047L110.626 18.5067L108.629 21.1625L106.129 24.4881L106.115 24.5069L98.611 34.4862L98.5932 34.5099C98.2377 34.9768 97.7219 35.3153 97.1275 35.4432C96.9559 35.4805 96.778 35.5 96.5953 35.5C95.4214 35.5 94.4362 34.6951 94.1639 33.6084H94.1636L93.3324 30.2914L93.3282 30.2751C93.2794 30.0805 93.2534 29.8765 93.2534 29.6667C93.2534 29.1072 93.4376 28.5906 93.749 28.1741C93.7507 28.1719 93.7525 28.1694 93.7542 28.1672L94.2498 27.5086L94.2557 27.5005L94.2594 27.4953L95.7598 25.5L96.7614 24.1679L98.7583 21.5119L98.7724 21.4931L101.271 18.1709L104.276 14.1743L104.277 14.1728L104.285 14.162L104.286 14.16L106.283 11.5042L111.8 4.1679L113.797 1.51185L113.805 1.50148C114.262 0.893333 114.99 0.5 115.811 0.5H119.153C120.537 0.5 121.659 1.61926 121.659 3C121.659 3.56099 121.474 4.07877 121.161 4.4958L121.153 4.50691L120.167 5.81877L120.143 5.85086C120.045 5.98691 119.988 6.15358 119.988 6.33333C119.988 6.79358 120.362 7.16667 120.824 7.16667C121.285 7.16667 121.659 7.53975 121.659 8Z" fill="#FF5C00" fill-opacity="0.2" stroke="#FF5C00"/>
<path d="M27.8913 13.0966C27.8913 13.6424 27.7103 14.1463 27.4041 14.5536C27.4036 14.5543 27.4031 14.5548 27.4026 14.5555C27.3999 14.5591 27.3975 14.5625 27.3945 14.5661C27.3815 14.5836 27.3679 14.6005 27.3542 14.6175C27.3537 14.6182 27.3532 14.6192 27.3525 14.6199C27.3443 14.6301 27.3362 14.64 27.3276 14.6499C27.2853 14.7008 27.241 14.7499 27.1948 14.7972C27.184 14.8083 27.1732 14.8192 27.1621 14.8301C27.1503 14.8417 27.1382 14.8533 27.1262 14.8647C27.121 14.8696 27.1159 14.8744 27.1107 14.879C27.1001 14.8892 27.0893 14.8991 27.0782 14.9088C27.0332 14.9495 26.9865 14.9882 26.9385 15.0253C26.9073 15.0497 26.8753 15.0732 26.8426 15.096C26.8077 15.1207 26.7718 15.1441 26.7354 15.1669C26.7246 15.1739 26.7135 15.1807 26.7024 15.187C26.6641 15.2105 26.6252 15.2325 26.5856 15.2536C26.5689 15.2626 26.5519 15.2715 26.5347 15.28C26.5212 15.287 26.5077 15.2935 26.4939 15.3001C26.4826 15.3057 26.4713 15.311 26.4597 15.3163C26.4149 15.3371 26.3694 15.3565 26.3235 15.3747C26.3156 15.3778 26.3077 15.3807 26.2996 15.3839C26.1533 15.4396 26.0003 15.4822 25.8419 15.51C25.8215 15.5137 25.8011 15.517 25.7804 15.5199C25.7612 15.5229 25.7421 15.5255 25.7229 15.5279C25.717 15.5287 25.7108 15.5294 25.7049 15.5301C25.6909 15.5318 25.6769 15.5335 25.6629 15.535C25.639 15.5374 25.6149 15.5396 25.5906 15.5413C25.5701 15.5427 25.5497 15.5442 25.5293 15.5451C25.5121 15.5459 25.4949 15.5466 25.4774 15.5471C25.471 15.5471 25.4646 15.5476 25.4582 15.5476C25.4393 15.548 25.4204 15.5483 25.4012 15.5483H21.251C19.8757 15.5483 18.7609 14.4506 18.7609 13.0966C18.7609 12.6452 18.3893 12.2794 17.9308 12.2794C17.6591 12.2794 17.4176 12.4079 17.2663 12.6067L17.2658 12.6075L15.7813 14.556L15.7693 14.572L8.31147 24.3627L8.30557 24.3702C8.29376 24.386 8.28147 24.4015 8.26917 24.417C8.25736 24.4318 8.24531 24.4468 8.23302 24.4613C8.22416 24.472 8.21556 24.4821 8.20646 24.4923C8.19932 24.5008 8.19219 24.5088 8.18481 24.517C8.17448 24.5286 8.16391 24.5402 8.15333 24.5516C8.15186 24.5536 8.15014 24.5552 8.14841 24.5569C8.14128 24.5649 8.13366 24.5729 8.12603 24.5807C8.12013 24.5875 8.11374 24.594 8.10734 24.6003C8.09628 24.6117 8.08521 24.6228 8.07389 24.6339C8.07291 24.6349 8.07193 24.6359 8.07094 24.6368C8.05471 24.6528 8.03823 24.6686 8.02151 24.6841H8.02127C8.00921 24.6957 7.99692 24.7071 7.98437 24.718C7.97626 24.7255 7.9679 24.7327 7.95953 24.7398C7.89584 24.7957 7.82894 24.8482 7.75934 24.8974C7.74631 24.9064 7.73327 24.9153 7.71999 24.9243C7.71212 24.9298 7.70425 24.9352 7.69614 24.9405C7.6954 24.941 7.69491 24.9415 7.69417 24.9417C7.68236 24.9495 7.67056 24.9572 7.65875 24.9647C7.64523 24.9734 7.63121 24.9821 7.61719 24.9904C7.60637 24.9972 7.59555 25.0037 7.58448 25.01C7.51906 25.0485 7.45167 25.0841 7.38256 25.1168C7.37224 25.1216 7.36191 25.1265 7.35133 25.1311C7.34739 25.133 7.34346 25.1347 7.33953 25.1364C7.33289 25.1393 7.32649 25.1422 7.31985 25.1451C7.23476 25.1824 7.1472 25.2151 7.05744 25.2427C7.04834 25.2456 7.03924 25.2483 7.02989 25.2509C7.0144 25.2558 6.9989 25.2601 6.98341 25.2642C6.96644 25.2691 6.94971 25.2734 6.9325 25.2778C6.91602 25.2822 6.89954 25.286 6.88282 25.2899C6.87716 25.2911 6.87175 25.2926 6.8661 25.2938C6.84814 25.2979 6.83019 25.3015 6.81224 25.3052C6.7901 25.3098 6.76797 25.3139 6.74559 25.3178C6.7269 25.3209 6.7082 25.324 6.68951 25.3267C6.67353 25.3291 6.65754 25.3316 6.64155 25.3335C6.62016 25.3364 6.59876 25.3388 6.57736 25.341C6.57195 25.3417 6.5663 25.3422 6.56064 25.3427C6.54047 25.3449 6.52006 25.3466 6.49965 25.348C6.47924 25.3495 6.45882 25.3509 6.43841 25.3519C6.42119 25.3526 6.40398 25.3533 6.38652 25.3538C6.37988 25.3541 6.37373 25.3543 6.36733 25.3543C6.3484 25.3548 6.32946 25.355 6.31028 25.355H2.99012C1.61484 25.355 0.5 24.2574 0.5 22.9034C0.5 22.3532 0.683961 21.8454 0.994826 21.4365L1.00294 21.4256L6.47161 14.2468L6.47973 14.2361L8.46518 11.6297L8.46715 11.627C8.9214 11.0306 9.64519 10.6449 10.4605 10.6449H25.4012C26.7765 10.6449 27.8913 11.7425 27.8913 13.0966Z" fill="#FF5C00" fill-opacity="0.2" stroke="#FF5C00"/>
<path d="M98.8936 10.6449H83.9529C83.9337 10.6449 83.9148 10.6451 83.8958 10.6456C83.8895 10.6456 83.8831 10.6459 83.8767 10.6461C83.8592 10.6466 83.842 10.6473 83.8248 10.648C83.8044 10.649 83.7839 10.6505 83.7635 10.6519C83.7628 10.6519 83.7621 10.6519 83.7613 10.6522C83.7421 10.6534 83.723 10.6551 83.7038 10.657C83.6826 10.6592 83.6615 10.6614 83.6403 10.664C83.6374 10.6645 83.6342 10.6648 83.6312 10.6652C83.612 10.6677 83.5929 10.6703 83.5737 10.6732C83.553 10.6761 83.5326 10.6795 83.5122 10.6832C83.4726 10.6902 83.4332 10.6979 83.3944 10.7069C83.3904 10.7076 83.3865 10.7086 83.3826 10.7095C83.3818 10.7095 83.3811 10.7098 83.3804 10.71C83.3722 10.7117 83.3641 10.7137 83.356 10.7158C83.3479 10.7178 83.34 10.72 83.3319 10.7219C83.3314 10.7219 83.3309 10.7219 83.3307 10.7221C83.3285 10.7226 83.3265 10.7234 83.3243 10.7238C83.3235 10.7238 83.3228 10.7238 83.3223 10.7243C83.3186 10.725 83.3152 10.726 83.3117 10.727C83.3041 10.7289 83.2967 10.7309 83.2891 10.733C83.2805 10.7352 83.2719 10.7376 83.2635 10.7401C83.2512 10.7434 83.2389 10.7471 83.2266 10.751C83.2237 10.7517 83.2205 10.7527 83.2176 10.7536C83.2102 10.7558 83.203 10.7582 83.1959 10.7604C83.1942 10.7609 83.1925 10.7614 83.191 10.7619C83.1853 10.7635 83.1797 10.7655 83.1743 10.7674H83.1738C83.1738 10.7674 83.1721 10.7681 83.1711 10.7684C83.1598 10.772 83.1487 10.7757 83.1376 10.7795C83.1209 10.7851 83.1044 10.7909 83.0879 10.797C83.0754 10.8013 83.0631 10.8059 83.0508 10.8108C83.0437 10.8134 83.0368 10.8161 83.0297 10.819C83.0289 10.8192 83.0279 10.8195 83.0272 10.82C83.027 10.82 83.0267 10.8202 83.0265 10.8202C83.0208 10.8224 83.0151 10.8246 83.0095 10.827C83.0028 10.8297 82.9962 10.8323 82.9896 10.8352C82.9815 10.8384 82.9733 10.8418 82.9655 10.8454C82.9574 10.8488 82.9492 10.8522 82.9414 10.8558C82.9256 10.8626 82.9099 10.8696 82.8944 10.8769C82.8828 10.8822 82.8715 10.8875 82.8602 10.8931C82.8336 10.9057 82.8076 10.919 82.7815 10.9328C82.7682 10.9396 82.7552 10.9466 82.7422 10.9539C82.7387 10.9556 82.7353 10.9575 82.7321 10.9594C82.721 10.9655 82.7099 10.9715 82.6991 10.9781C82.6856 10.9856 82.6721 10.9936 82.6588 11.0016C82.6438 11.0105 82.6293 11.0195 82.6145 11.0289C82.5796 11.0507 82.5452 11.0735 82.5115 11.0972C82.4788 11.12 82.4468 11.1435 82.4155 11.1679C82.4035 11.1771 82.3917 11.1866 82.3799 11.196C82.3718 11.2026 82.3637 11.2091 82.3558 11.2156C82.3307 11.2362 82.3059 11.2575 82.2815 11.2796C82.2793 11.2815 82.2768 11.2837 82.2746 11.2856C82.2712 11.2888 82.268 11.2919 82.2645 11.2948C82.2645 11.2948 82.2645 11.2948 82.2645 11.295C82.2631 11.2963 82.2618 11.2975 82.2604 11.2989C82.2601 11.2989 82.2599 11.2989 82.2596 11.2994C82.2591 11.2997 82.2586 11.3001 82.2581 11.3006C82.2537 11.3045 82.2495 11.3086 82.2451 11.3127C82.2382 11.319 82.2313 11.3256 82.2245 11.3321C82.2242 11.3321 82.2242 11.3323 82.224 11.3326C82.2235 11.3328 82.2232 11.3333 82.2227 11.3338C82.2161 11.3401 82.2097 11.3464 82.2031 11.3529C82.1989 11.3568 82.1949 11.3607 82.1908 11.3648C82.1824 11.3728 82.1745 11.3808 82.1669 11.3888C82.163 11.3924 82.1593 11.3963 82.1556 11.4001C82.101 11.4561 82.0491 11.5147 82.0002 11.5757C81.996 11.5805 81.992 11.5854 81.9884 11.5902C81.9756 11.6064 81.9628 11.6229 81.9502 11.6396C81.644 12.0469 81.463 12.5508 81.463 13.0966C81.463 14.4506 82.5779 15.5483 83.9531 15.5483H87.2733C88.0886 15.5483 88.8124 15.1625 89.2666 14.5661L89.2686 14.5635L90.7585 12.6075L90.759 12.6067C90.9102 12.4079 91.1517 12.2794 91.4235 12.2794C91.8819 12.2794 92.2535 12.6452 92.2535 13.0966C92.2535 13.2804 92.1921 13.4499 92.088 13.5864L91.6006 14.2264L91.5989 14.2286L91.5893 14.2412L91.5802 14.2531L91.5767 14.2579L89.6021 16.8498L89.5979 16.8554C89.4467 17.0542 89.2051 17.1827 88.9334 17.1827H78.9729C78.1576 17.1827 77.4338 17.5685 76.9796 18.1649L76.9776 18.1675L74.4956 21.4256L74.4875 21.4365C74.1766 21.8454 73.9927 22.3532 73.9927 22.9034C73.9927 24.2574 75.1075 25.355 76.4828 25.355H91.4235C92.2388 25.355 92.9626 24.9693 93.4168 24.3729L93.4247 24.3627L95.4087 21.758L100.867 14.5923C100.871 14.5877 100.875 14.5826 100.878 14.5778L100.889 14.5635L100.895 14.5557C100.895 14.5557 100.896 14.5543 100.897 14.5536C101.203 14.1463 101.384 13.6424 101.384 13.0966C101.384 11.7425 100.269 10.6449 98.8939 10.6449H98.8936ZM87.1075 20.1243L86.1272 21.4113L86.0945 21.4541L84.6228 23.3862L84.6216 23.3876L84.6174 23.3932C84.4662 23.592 84.2247 23.7206 83.9529 23.7206C83.4945 23.7206 83.1229 23.3547 83.1229 22.9034C83.1229 22.7196 83.1843 22.5501 83.2884 22.4135L83.2923 22.4084L83.2938 22.4065L83.7758 21.7735L83.7997 21.742L84.2798 21.1122L84.2952 21.0919L85.778 19.1453L85.7785 19.1446C85.9297 18.9458 86.1713 18.8172 86.443 18.8172C86.9015 18.8172 87.2731 19.1831 87.2731 19.6344C87.2731 19.8182 87.2116 19.9877 87.1075 20.1243Z" fill="#FF5C00" fill-opacity="0.2" stroke="#FF5C00"/>
<path d="M74.0608 10.6449H59.0775C58.2599 10.6449 57.5341 11.036 57.0785 11.6406L57.0765 11.6433L55.0854 14.2856L55.0773 14.2964L49.593 21.5743L49.579 21.5929L47.5898 24.2328L47.5893 24.2336L46.5915 25.5579L45.0929 27.5468L44.5932 28.2096L44.588 28.2165C44.2777 28.6306 44.0942 29.1442 44.0942 29.7005C44.0942 29.9091 44.1201 30.1119 44.1687 30.3053L44.1729 30.3215L45.0011 33.6193H45.0014C45.2727 34.6997 46.2543 35.5 47.4239 35.5C47.6059 35.5 47.7832 35.4806 47.9541 35.4435C48.5461 35.3163 49.0596 34.9803 49.4135 34.5166L49.4327 34.491L55.9134 25.8906L55.9139 25.8898C56.0656 25.6883 56.3078 25.5579 56.5803 25.5579H66.5692C67.3868 25.5579 68.1126 25.1669 68.5682 24.5623L68.5761 24.552L76.0509 14.632C76.0509 14.632 76.0526 14.6298 76.0534 14.6286L76.0618 14.6175L76.0677 14.6097C76.0677 14.6097 76.0689 14.6082 76.0694 14.6075C76.3765 14.1946 76.558 13.6837 76.558 13.1304C76.558 11.7577 75.44 10.6449 74.0608 10.6449ZM67.2356 13.627L66.7467 14.2758L66.7453 14.2778L66.7263 14.3028L66.7228 14.3077L61.258 21.5598L61.2252 21.6032L59.7481 23.5634L59.7439 23.569C59.5923 23.7706 59.3501 23.9009 59.0775 23.9009C58.6178 23.9009 58.2451 23.53 58.2451 23.0724C58.2451 22.8861 58.3068 22.7143 58.4111 22.5758L58.415 22.5707L64.3997 14.6286L64.4153 14.608L65.9022 12.6345L65.9027 12.6338C66.0544 12.4323 66.2966 12.3019 66.5692 12.3019C67.0289 12.3019 67.4016 12.6728 67.4016 13.1304C67.4016 13.3167 67.3399 13.4886 67.2356 13.627Z" fill="#FF5C00" fill-opacity="0.2" stroke="#FF5C00"/>
</svg>
