<svg width="400" height="400" viewBox="0 0 400 400" fill="none" xmlns="http://www.w3.org/2000/svg">
<rect width="400" height="400" fill="#00205C"/>
<path fill-rule="evenodd" clip-rule="evenodd" d="M274.403 233.118C275.946 231.253 278.338 230.308 280.74 230.616C283.143 230.922 285.218 232.439 286.242 234.635C294.006 251.254 308.31 281.94 308.31 281.94C308.731 282.848 308.966 283.859 308.966 284.923C308.966 288.826 305.796 291.999 301.891 291.999H273.588C270.775 291.999 268.341 290.351 267.203 287.968C267.203 287.968 258.373 269.507 254.043 260.447C252.673 257.58 253.38 254.153 255.775 252.064C262.819 245.883 269.018 239.506 274.403 233.118ZM236.433 206.902C234.735 207.754 232.768 207.89 230.971 207.275C229.176 206.658 227.702 205.348 226.884 203.636C223.148 195.841 216.882 182.74 213.098 174.824C212.509 173.593 211.267 172.812 209.905 172.812C208.541 172.812 207.301 173.593 206.713 174.824C201.245 186.258 190.167 209.426 184.886 220.47C183.018 224.373 179.469 227.209 175.249 228.165C168.091 229.75 160.617 231.154 152.822 232.343C148.956 232.932 145.081 231.347 142.738 228.219C140.392 225.089 139.962 220.926 141.612 217.382C157.084 184.158 189.341 114.956 189.341 114.956C190.467 112.539 192.921 110.863 195.757 110.863H224.059C226.898 110.863 229.352 112.542 230.478 114.956C230.478 114.956 254.725 166.979 262.593 183.858C264.022 186.923 263.08 190.577 260.343 192.567C253.364 197.545 245.396 202.376 236.433 206.902Z" fill="white"/>
<path fill-rule="evenodd" clip-rule="evenodd" d="M80.9786 292C79.8776 292 78.8192 291.561 78.0409 290.782C77.2626 290.001 76.8237 288.946 76.8237 287.845C76.8237 287.794 76.8237 287.743 76.8237 287.689C76.8237 267.031 93.021 250.002 113.653 248.966C114.486 248.938 115.213 248.904 115.813 248.87C119.705 248.655 123.531 248.389 127.295 248.072C144.563 246.626 160.494 244.169 175.104 240.928C198.388 235.763 218.307 228.611 234.895 220.406C248.664 213.596 260.138 206.059 269.339 198.333C284.291 185.772 293.229 172.705 296.246 161.432C297.647 156.202 297.772 151.36 296.631 147.129C295.742 143.834 294.087 140.913 291.67 138.473C291.46 138.264 291.248 138.057 291.027 137.854C290.291 137.197 289.522 136.58 288.721 136.002C285.8 133.962 282.143 132.425 277.754 131.491C277.431 131.42 277.202 131.129 277.207 130.798C277.213 130.464 277.454 130.181 277.779 130.122C282.378 129.202 286.575 127.167 290.079 124.308C290.821 123.703 291.531 123.057 292.208 122.381C295.941 118.65 298.635 113.884 299.824 108.552C299.889 108.229 300.172 108 300.5 108C300.829 108 301.112 108.232 301.177 108.552C302.368 113.884 305.066 118.65 308.796 122.381C309.472 123.057 310.182 123.703 310.924 124.308C314.275 127.042 318.263 129.023 322.627 129.997C322.947 130.067 323.176 130.351 323.176 130.679C323.173 131.005 322.944 131.288 322.622 131.356C317.538 132.488 312.967 134.993 309.319 138.46C309.141 138.627 308.968 138.796 308.796 138.969C308.538 139.226 308.275 139.478 308.04 139.752C299.563 149.715 302.609 167.022 297.401 180.206C293.221 190.788 286.457 202.626 276.89 214.533C268.765 224.646 258.616 234.806 246.315 244.287C223.291 262.033 192.722 277.404 153.73 285.623C146.719 287.103 139.437 288.348 131.878 289.339C127.627 289.894 123.288 290.366 118.861 290.754C117.415 290.882 115.955 290.998 114.488 291.108C112.026 291.289 109.539 291.442 107.022 291.57C101.809 291.833 96.4824 291.977 91.0399 292H80.9786Z" fill="white"/>
</svg>
