<svg width="415" height="162" viewBox="0 0 415 162" fill="none" xmlns="http://www.w3.org/2000/svg">
<rect width="414.02" height="161.011" fill="white"/>
<path fill-rule="evenodd" clip-rule="evenodd" d="M86.9243 73.5107H88.2499C87.8008 73.5107 87.354 73.5258 86.9128 73.5558L86.9243 73.5107ZM69.0751 88.5107H67.7494C68.1985 88.5107 68.6454 88.4957 69.0865 88.4657L69.0751 88.5107Z" fill="#00205C"/>
<path fill-rule="evenodd" clip-rule="evenodd" d="M67.7494 88.5107C62.4064 88.5107 57.557 86.3845 54 82.9335C50.3 79.3425 48 74.3185 48 68.7615C48 63.2035 50.3 58.1795 54 54.5895C57.557 51.1375 62.407 49.0115 67.75 49.0115H99.5C100.88 49.0115 102 50.1315 102 51.5115V61.5115C102 62.8905 100.88 64.0115 99.5 64.0115H67.75C65.128 64.0115 63 66.1395 63 68.7615C63 71.3825 65.128 73.5115 67.75 73.5115L86.9243 73.5107L86.9128 73.5558C87.3548 73.5268 87.7999 73.5107 88.2499 73.5107C93.5929 73.5107 98.443 75.6375 102 79.0895C105.699 82.6795 108 87.7035 108 93.2615C108 98.8185 105.699 103.842 102 107.433C98.443 110.884 93.593 113.011 88.25 113.011H56.5C55.12 113.011 54 111.89 54 110.511V100.511C54 99.1315 55.12 98.0115 56.5 98.0115H88.25C90.871 98.0115 93 95.8825 93 93.2615C93 90.6395 90.871 88.5115 88.25 88.5115H69.076L69.0865 88.4657C68.6454 88.4957 68.1985 88.5107 67.7494 88.5107Z" fill="#00205C"/>
<path fill-rule="evenodd" clip-rule="evenodd" d="M164 110.511V51.5115C164 50.1315 165.12 49.0115 166.5 49.0115H209.5C210.88 49.0115 212 50.1315 212 51.5115V61.5115C212 62.8905 210.88 64.0115 209.5 64.0115H180.5C179.672 64.0115 179 64.6835 179 65.5115V72.0115C179 72.8395 179.672 73.5115 180.5 73.5115H206.5C207.88 73.5115 209 74.6315 209 76.0115V86.0115C209 87.3905 207.88 88.5115 206.5 88.5115H180.5C179.672 88.5115 179 89.1835 179 90.0115V96.5115C179 97.3395 179.672 98.0115 180.5 98.0115H209.5C210.88 98.0115 212 99.1315 212 100.511V110.511C212 111.89 210.88 113.011 209.5 113.011H166.5C165.12 113.011 164 111.89 164 110.511Z" fill="#00205C"/>
<path fill-rule="evenodd" clip-rule="evenodd" d="M218 110.511V51.5115C218 50.1315 219.12 49.0115 220.5 49.0115H230.5C231.88 49.0115 233 50.1315 233 51.5115V96.5115C233 97.3395 233.672 98.0115 234.5 98.0115H260.5C261.88 98.0115 263 99.1315 263 100.511V110.511C263 111.89 261.88 113.011 260.5 113.011H220.5C219.12 113.011 218 111.89 218 110.511Z" fill="#00205C"/>
<path fill-rule="evenodd" clip-rule="evenodd" d="M348.788 92.207C349.333 91.548 350.178 91.214 351.027 91.323C351.876 91.431 352.609 91.967 352.971 92.743C355.714 98.615 360.768 109.457 360.768 109.457C360.917 109.778 361 110.135 361 110.511C361 111.89 359.88 113.011 358.5 113.011H348.5C347.506 113.011 346.646 112.429 346.244 111.587C346.244 111.587 343.124 105.064 341.594 101.863C341.11 100.85 341.36 99.639 342.206 98.901C344.695 96.717 346.885 94.464 348.788 92.207ZM335.372 82.944C334.772 83.245 334.077 83.293 333.442 83.076C332.808 82.858 332.287 82.395 331.998 81.79C330.678 79.036 328.464 74.407 327.127 71.61C326.919 71.175 326.48 70.899 325.999 70.899C325.517 70.899 325.079 71.175 324.871 71.61C322.734 76.079 318.171 85.622 316.638 88.826C316.312 89.509 315.695 90.007 314.959 90.181C311.368 91.02 307.543 91.726 303.484 92.268C302.58 92.387 301.683 92.004 301.143 91.269C300.604 90.534 300.508 89.563 300.893 88.736C305.829 78.143 318.733 50.457 318.733 50.457C319.131 49.603 319.998 49.011 321 49.011H331C332.003 49.011 332.87 49.604 333.268 50.457C333.268 50.457 341.835 68.838 344.615 74.802C345.12 75.885 344.787 77.176 343.82 77.879C341.354 79.638 338.539 81.345 335.372 82.944Z" fill="#00205C"/>
<path fill-rule="evenodd" clip-rule="evenodd" d="M271.031 97.12C270.664 97.422 270.156 97.486 269.726 97.283C269.296 97.08 269.022 96.648 269.022 96.172C269 93.538 269 90.011 269 90.011C269 89.46 268.821 88.95 268.518 88.536L242.481 52.986C242.178 52.572 242 52.062 242 51.511C242 50.131 243.12 49.011 244.5 49.011H256.5C257.363 49.011 258.124 49.449 258.574 50.115C258.574 50.115 271.708 68.042 275.492 73.206C275.727 73.527 276.102 73.717 276.5 73.717C276.898 73.717 277.273 73.527 277.508 73.206C281.292 68.042 294.426 50.115 294.426 50.115C294.876 49.449 295.637 49.011 296.5 49.011H308.5C309.88 49.011 311 50.131 311 51.511C311 52.062 310.821 52.572 310.518 52.986L284.481 88.536C284.179 88.949 284.001 89.46 284 90.01L284.001 90.053L284 91.017C283.997 92.394 282.878 93.511 281.5 93.511C277.553 93.511 273.918 94.859 271.031 97.12Z" fill="#00205C"/>
<path fill-rule="evenodd" clip-rule="evenodd" d="M269 110.511C269 103.612 274.601 98.011 281.5 98.011H284C287.012 98.012 289.93 97.93 292.753 97.773C294.128 97.696 295.48 97.602 296.81 97.491C302.911 96.98 308.541 96.111 313.702 94.967C321.93 93.142 328.967 90.615 334.828 87.716C339.694 85.309 343.748 82.646 346.998 79.916C352.281 75.478 355.44 70.862 356.506 66.878C357 65.031 357.045 63.319 356.642 61.824C356.328 60.661 355.743 59.628 354.888 58.766C354.815 58.692 354.739 58.619 354.661 58.547C354.402 58.316 354.13 58.097 353.847 57.893C352.814 57.173 351.522 56.629 349.972 56.3C349.857 56.274 349.776 56.171 349.778 56.054C349.781 55.936 349.865 55.837 349.981 55.815C351.606 55.491 353.089 54.771 354.326 53.761C354.588 53.547 354.839 53.32 355.079 53.081C356.397 51.762 357.349 50.078 357.769 48.194C357.793 48.081 357.893 47.999 358.009 48C358.124 48 358.224 48.081 358.247 48.194C358.669 50.078 359.621 51.762 360.939 53.081C361.178 53.32 361.43 53.547 361.692 53.761C362.875 54.727 364.284 55.428 365.826 55.772C365.94 55.796 366.021 55.896 366.02 56.012C366.02 56.128 365.938 56.227 365.825 56.251C364.028 56.652 362.413 57.536 361.124 58.761C361.062 58.82 361 58.88 360.939 58.941C360.848 59.032 360.755 59.121 360.672 59.219C357.677 62.738 358.754 68.853 356.914 73.511C355.437 77.25 353.046 81.433 349.666 85.64C346.795 89.213 343.21 92.803 338.863 96.154C330.729 102.424 319.927 107.854 306.15 110.759C303.673 111.281 301.1 111.722 298.429 112.071C296.927 112.267 295.395 112.435 293.831 112.572C293.319 112.616 292.804 112.658 292.285 112.696C289.613 112.892 286.852 113 284 113.011H271.5C270.12 113.011 269 111.891 269 110.511Z" fill="#00205C"/>
<path fill-rule="evenodd" clip-rule="evenodd" d="M138.125 49.0105C139.506 49.0105 140.626 50.1304 140.626 51.5111C140.626 54.8258 139.308 58.006 136.963 60.3496C134.621 62.6943 131.44 64.0108 128.125 64.0108C121.621 64.0108 114.258 64.0108 110.501 64.0108C109.12 64.0108 108 62.892 108 61.5113C108 58.7366 108 54.2858 108 51.5111C108 50.1304 109.12 49.0105 110.501 49.0105C116.575 49.0105 132.051 49.0105 138.125 49.0105Z" fill="#00205C"/>
<path fill-rule="evenodd" clip-rule="evenodd" d="M148 64.0112C143.858 64.0112 140.5 67.3692 140.5 71.5112V113.011H125.5V69.7183C125.5 69.0533 126.022 68.5043 126.687 68.4703C136.505 67.8853 144.374 60.0162 144.964 50.1982C144.998 49.5352 145.545 49.0162 146.208 49.0162C148.317 49.0112 152.712 49.0112 155.5 49.0112C156.881 49.0112 158 50.1302 158 51.5112V61.5112C158 62.8912 156.881 64.0112 155.5 64.0112C155.5 64.0112 151.75 64.0112 148 64.0112Z" fill="#00205C"/>
</svg>
