<svg width="3000" height="1143" viewBox="0 0 3000 1143" fill="none" xmlns="http://www.w3.org/2000/svg" xmlns:xlink="http://www.w3.org/1999/xlink">
<rect width="3000" height="1142.8" fill="white"/>
<rect width="3000" height="1142.8"/>
<path d="M1991.96 805.513C1991.96 860.3 2036.37 904.714 2091.16 904.714C2145.95 904.714 2190.36 860.3 2190.36 805.513C2190.36 750.726 2145.95 706.312 2091.16 706.312C2036.37 706.312 1991.96 750.726 1991.96 805.513ZM1991.96 805.513C1991.96 816.47 2000.84 825.355 2011.8 825.355C2022.76 825.355 2031.64 816.472 2031.64 805.515C2031.64 794.557 2022.76 785.675 2011.8 785.675C2000.84 785.675 1991.96 794.555 1991.96 805.513ZM546.991 511.921H557.511M546.991 511.921L546.9 512.278M546.991 511.921L394.82 511.925C374.012 511.925 357.124 495.029 357.124 474.229C357.124 453.42 374.012 436.532 394.82 436.532H646.791M557.511 511.921C553.947 511.921 550.401 512.04 546.9 512.278M557.511 511.921C553.948 511.921 550.408 512.048 546.9 512.278M557.511 511.921C599.914 511.921 638.403 528.797 666.631 556.193C695.995 584.683 714.248 624.554 714.248 668.663C714.248 712.764 695.995 752.643 666.631 781.133C638.403 808.528 599.913 825.401 557.51 825.401H305.539C294.588 825.401 285.699 816.512 285.699 805.56V726.2M1158.67 805.561V337.332M1158.67 805.561C1158.67 816.505 1167.56 825.402 1178.51 825.402M1158.67 805.561C1158.67 816.519 1167.55 825.402 1178.51 825.402M1158.67 805.561C1158.67 794.604 1167.55 785.72 1178.51 785.72C1189.47 785.72 1198.35 794.603 1198.35 805.56C1198.35 816.518 1189.47 825.402 1178.51 825.402M1158.67 337.332C1158.67 326.38 1167.56 317.492 1178.51 317.492M1158.67 337.332C1158.67 348.29 1167.55 357.171 1178.51 357.171C1189.47 357.171 1198.35 348.289 1198.35 337.331C1198.35 326.374 1189.47 317.492 1178.51 317.492M1178.51 317.492H1519.76C1530.71 317.492 1539.6 326.38 1539.6 337.332V416.693M1539.6 416.693C1539.6 427.637 1530.71 436.533 1519.76 436.533M1539.6 416.693C1539.6 427.651 1530.72 436.533 1519.76 436.533M1539.6 416.693C1539.6 405.736 1530.72 396.852 1519.76 396.852C1508.8 396.852 1499.92 405.735 1499.92 416.692C1499.92 427.65 1508.81 436.533 1519.76 436.533M1519.76 436.533H1289.62M1289.62 436.533C1283.05 436.533 1277.71 441.866 1277.71 448.437M1289.62 436.533C1296.19 436.533 1301.52 441.858 1301.52 448.433C1301.52 455.007 1296.19 460.337 1289.61 460.337C1283.04 460.337 1277.71 455.012 1277.71 448.437M1277.71 448.437V500.022C1277.71 506.593 1283.05 511.926 1289.62 511.926H1495.95C1506.91 511.926 1515.79 520.815 1515.79 531.766V611.127M1515.79 611.127C1515.79 622.071 1506.91 630.967 1495.95 630.967M1515.79 611.127C1515.79 622.085 1506.91 630.967 1495.95 630.967M1515.79 611.127C1515.79 600.17 1506.91 591.286 1495.95 591.286C1485 591.286 1476.11 600.169 1476.11 611.126C1476.11 622.084 1485 630.967 1495.95 630.967M1495.95 630.967H1289.62C1283.05 630.967 1277.71 636.3 1277.71 642.872V694.456C1277.71 701.027 1283.05 706.36 1289.62 706.36H1519.76C1530.71 706.36 1539.6 715.249 1539.6 726.2V805.561M1539.6 805.561C1539.6 816.505 1530.71 825.402 1519.76 825.402M1539.6 805.561C1539.6 816.519 1530.72 825.402 1519.76 825.402M1539.6 805.561C1539.6 794.604 1530.72 785.72 1519.76 785.72C1508.8 785.72 1499.92 794.603 1499.92 805.56C1499.92 816.518 1508.81 825.402 1519.76 825.402M1519.76 825.402H1178.51M1587.22 805.561V337.332M1587.22 805.561C1587.22 816.505 1596.11 825.402 1607.06 825.402M1587.22 805.561C1587.22 816.519 1596.1 825.402 1607.06 825.402M1587.22 805.561C1587.22 794.604 1596.1 785.72 1607.06 785.72C1618.02 785.72 1626.9 794.603 1626.9 805.56C1626.9 816.518 1618.02 825.402 1607.06 825.402M1587.22 337.332C1587.22 326.38 1596.11 317.492 1607.06 317.492M1587.22 337.332C1587.22 348.29 1596.1 357.171 1607.06 357.171C1618.02 357.171 1626.9 348.289 1626.9 337.331C1626.9 326.374 1618.02 317.492 1607.06 317.492M1607.06 317.492H1686.42M1686.42 317.492C1697.37 317.492 1706.26 326.38 1706.26 337.332M1686.42 317.492C1675.46 317.492 1666.58 326.374 1666.58 337.331C1666.58 348.289 1675.46 357.171 1686.42 357.171C1697.38 357.171 1706.26 348.29 1706.26 337.332M1706.26 337.332V694.456C1706.26 701.027 1711.59 706.36 1718.16 706.36H1924.5C1935.45 706.36 1944.34 715.249 1944.34 726.2V805.561M1944.34 805.561C1944.34 816.505 1935.45 825.402 1924.5 825.402M1944.34 805.561C1944.34 816.519 1935.46 825.402 1924.5 825.402M1944.34 805.561C1944.34 794.604 1935.46 785.72 1924.5 785.72C1913.54 785.72 1904.66 794.603 1904.66 805.56C1904.66 816.518 1913.55 825.402 1924.5 825.402M1924.5 825.402H1607.06M2404.63 317.489C2396.68 317.489 2389.8 322.187 2386.64 328.965C2386.64 328.965 2284.23 548.683 2245.06 632.75C2242.01 639.313 2242.77 647.019 2247.04 652.852C2251.33 658.685 2258.45 661.725 2265.62 660.781C2297.84 656.479 2328.19 650.876 2356.69 644.218C2362.53 642.837 2367.43 638.885 2370.01 633.464C2382.18 608.037 2418.39 532.303 2435.35 496.837C2437 493.385 2440.48 491.194 2444.3 491.194C2448.12 491.194 2451.61 493.385 2453.26 496.837C2463.87 519.034 2481.44 555.77 2491.91 577.626C2494.21 582.427 2498.34 586.102 2503.37 587.832C2508.41 589.554 2513.93 589.173 2518.69 586.784C2543.82 574.094 2566.16 560.547 2585.73 546.588C2593.41 541.009 2596.05 530.764 2592.04 522.169C2569.98 474.838 2501.99 328.965 2501.99 328.965C2498.83 322.195 2491.95 317.489 2483.99 317.489M2404.63 317.489H2483.99M2404.63 317.489C2393.67 317.489 2384.79 326.374 2384.79 337.331C2384.79 348.289 2393.68 357.171 2404.63 357.171C2415.59 357.171 2424.47 348.289 2424.47 337.331C2424.47 326.374 2415.59 317.489 2404.63 317.489ZM2483.99 317.489C2473.04 317.489 2464.16 326.374 2464.16 337.331C2464.16 348.289 2473.04 357.171 2484 357.171C2494.95 357.171 2503.84 348.289 2503.84 337.331C2503.84 326.374 2494.95 317.489 2483.99 317.489ZM1777.68 337.329C1777.68 341.702 1779.1 345.749 1781.5 349.035L1988.13 631.163C1990.54 634.449 1991.96 638.496 1991.96 642.869C1991.96 642.869 1991.96 670.859 1992.13 691.763C1992.13 695.541 1994.31 698.969 1997.72 700.58C2001.13 702.191 2005.16 701.683 2008.08 699.286C2030.99 681.343 2059.84 670.645 2091.16 670.645M1777.68 337.329C1777.68 326.377 1786.57 317.489 1797.52 317.489M1777.68 337.329C1777.68 348.287 1786.57 357.171 1797.52 357.171C1808.48 357.171 1817.36 348.289 1817.36 337.331C1817.36 326.374 1808.48 317.489 1797.52 317.489M1797.52 317.489H1892.76C1899.61 317.489 1905.64 320.965 1909.22 326.251C1909.22 326.251 2013.45 468.521 2043.48 509.503C2045.34 512.05 2048.32 513.558 2051.48 513.558C2054.64 513.558 2057.61 512.05 2059.48 509.503C2089.51 468.521 2193.74 326.251 2193.74 326.251C2197.31 320.965 2203.35 317.489 2210.2 317.489H2305.43M2305.43 317.489C2316.39 317.489 2325.27 326.377 2325.27 337.329M2305.43 317.489C2294.48 317.489 2285.59 326.374 2285.59 337.331C2285.59 348.289 2294.48 357.171 2305.43 357.171C2316.39 357.171 2325.27 348.287 2325.27 337.329M2325.27 337.329C2325.27 341.702 2323.85 345.749 2321.45 349.035L2114.82 631.163C2112.42 634.441 2111.01 638.496 2111 642.861L2111.01 643.202L2111 650.852C2110.98 661.78 2102.1 670.645 2091.16 670.645M2091.16 670.645C2102.12 670.645 2111 661.764 2111 650.807C2111 639.849 2102.12 630.966 2091.16 630.966C2080.2 630.966 2071.32 639.849 2071.32 650.807C2071.32 661.764 2080.2 670.645 2091.16 670.645ZM714.254 416.692C714.254 427.649 723.138 436.528 734.101 436.528C763.917 436.528 822.346 436.528 873.966 436.528C900.273 436.528 925.514 426.08 944.106 407.473C962.714 388.874 973.172 363.636 973.172 337.33C973.172 326.372 964.285 317.485 953.322 317.485C905.124 317.485 782.299 317.485 734.101 317.485C723.138 317.485 714.254 326.372 714.254 337.33C714.254 359.35 714.254 394.672 714.254 416.692ZM714.254 416.692C714.254 427.649 723.131 436.532 734.088 436.532C745.046 436.532 753.928 427.65 753.928 416.692C753.928 405.735 745.046 396.852 734.088 396.852C723.131 396.852 714.254 405.734 714.254 416.692ZM1111.05 416.692V337.331C1111.05 326.371 1102.17 317.491 1091.21 317.491C1069.09 317.491 1034.21 317.491 1017.47 317.531C1012.21 317.531 1007.87 321.65 1007.6 326.911C1002.92 404.828 940.466 467.277 862.55 471.92C857.272 472.19 853.129 476.546 853.129 481.824C853.129 481.824 853.129 732.382 853.129 805.56C853.129 816.512 862.01 825.401 872.97 825.401C894.984 825.401 930.316 825.401 952.331 825.401C963.29 825.401 972.171 816.512 972.171 805.56V496.053C972.171 463.182 998.82 436.532 1031.69 436.532C1061.45 436.532 1091.21 436.532 1091.21 436.532M1111.05 416.692C1111.05 427.644 1102.17 436.532 1091.21 436.532M1111.05 416.692C1111.05 405.735 1102.17 396.852 1091.21 396.852C1080.25 396.852 1071.37 405.735 1071.37 416.692C1071.37 427.65 1080.25 436.532 1091.21 436.532M666.631 416.692V337.331C666.631 326.379 657.743 317.491 646.791 317.491H394.82C352.418 317.491 313.928 334.363 285.699 361.759C256.336 390.249 238.083 430.12 238.083 474.229C238.083 491.537 240.9 508.203 246.09 523.782C254.129 547.884 267.867 569.39 285.699 586.699C313.928 614.094 352.418 630.966 394.82 630.966H557.51M666.631 416.692C666.631 427.644 657.743 436.532 646.791 436.532M666.631 416.692C666.631 405.735 657.749 396.852 646.791 396.852C635.834 396.852 626.951 405.735 626.951 416.692C626.951 427.65 635.834 436.532 646.791 436.532M285.699 726.2C285.699 715.248 294.588 706.359 305.539 706.359M285.699 726.2C285.699 737.157 294.582 746.04 305.539 746.04C316.497 746.04 325.38 737.157 325.38 726.2C325.38 715.242 316.497 706.359 305.539 706.359M305.539 706.359H557.51M557.51 706.359C578.319 706.359 595.207 689.463 595.207 668.663M557.51 706.359C578.329 706.359 595.207 689.482 595.207 668.663M557.51 706.359C536.691 706.359 519.814 689.484 519.814 668.665C519.814 647.846 536.691 630.966 557.51 630.966M595.207 668.663C595.207 647.854 578.319 630.966 557.51 630.966M595.207 668.663C595.207 647.844 578.329 630.966 557.51 630.966M728.136 337.284H740.04M854.029 337.282H893.892M2071.23 805.511H2111.09M728.136 416.645H740.04M867.018 805.513H878.922M946.378 805.513H958.283M299.587 805.513H311.491M640.839 416.69H652.743M383.512 474.181H406.129M1020.38 496.006H1043M1287.63 448.435H1291.6M1287.63 642.823H1291.6M1287.63 499.974H1291.6M1287.63 694.362H1291.6M1716.18 694.362H1720.15M2049.76 502.355H2053.2M2000.77 690.483H2004.21M2002.49 692.201V688.762M2442.6 501.561H2446.04M546.201 668.661H568.819M1085.26 416.69H1097.16M1513.81 416.69H1525.71M1490 611.124H1501.9M1172.56 805.558H1184.46M1601.11 805.558H1613.01M1918.55 805.558H1930.45M2005.85 805.558H2017.75M1918.55 726.152H1930.45M1172.56 337.329H1184.46M1601.11 337.329H1613.01M1680.47 337.329H1692.37M1791.57 337.329H1803.48M2299.48 337.329H2311.39M2398.68 337.329H2410.59M2257.09 641.161H2269M2085.21 650.805H2097.11M2346.49 624.191H2358.4M2503.8 568.975H2515.7M2567.79 530.046H2579.7M2478.04 337.329H2489.95M2696.29 805.513H2708.19M2634.52 672.906H2646.42M2580.07 728.205H2591.97M2616.92 805.513H2628.83M1513.81 805.558H1525.71M299.587 726.198H311.491M640.839 337.375H652.743M1085.26 337.375H1097.16M1513.81 337.375H1525.71M1490 531.809H1501.9M1513.81 726.243H1525.71M734.088 331.332V343.236M873.964 317.351V357.214M2091.16 785.58V825.443M734.088 410.693V422.597M872.97 799.561V811.465M952.331 799.561V811.465M305.539 799.561V811.465M646.791 410.738V422.642M1091.21 410.738V422.642M1519.76 410.738V422.642M1495.95 605.172V617.076M1178.51 799.606V811.511M1607.06 799.606V811.511M1924.5 799.606V811.511M2011.8 799.606V811.511M1924.5 720.2V732.104M1178.51 331.377V343.281M1607.06 331.377V343.281M1686.42 331.377V343.281M1797.52 331.377V343.281M2305.43 331.377V343.281M2404.63 331.377V343.281M2263.05 635.209V647.113M2091.16 644.853V656.757M2352.45 618.239V630.144M2509.75 563.022V574.927M2573.75 524.094V535.998M2484 331.377V343.281M2702.24 799.561V811.465M2640.47 666.954V678.858M2586.02 722.253V734.157M2622.88 799.561V811.465M1519.76 799.606V811.511M305.539 720.246V732.15M646.791 331.423V343.327M1091.21 331.423V343.327M1519.76 331.423V343.327M1495.95 525.857V537.761M1519.76 720.291V732.195M973.163 337.284C973.163 392.071 928.749 436.485 873.962 436.485C819.174 436.485 774.761 392.071 774.761 337.284C774.761 282.496 819.174 238.083 873.962 238.083C928.749 238.083 973.163 282.496 973.163 337.284ZM2061.8 502.354C2061.8 508.052 2057.18 512.671 2051.48 512.671C2045.78 512.671 2041.16 508.052 2041.16 502.354C2041.16 496.656 2045.78 492.037 2051.48 492.037C2057.18 492.037 2061.8 496.656 2061.8 502.354ZM2012.81 690.483C2012.81 696.181 2008.19 700.8 2002.49 700.8C1996.79 700.8 1992.17 696.181 1992.17 690.483C1992.17 684.785 1996.79 680.166 2002.49 680.166C2008.19 680.166 2012.81 684.785 2012.81 690.483ZM2454.63 501.561C2454.63 507.259 2450.01 511.878 2444.31 511.878C2438.62 511.878 2434 507.259 2434 501.561C2434 495.863 2438.62 491.244 2444.31 491.244C2450.01 491.244 2454.63 495.863 2454.63 501.561ZM1091.21 496.006C1091.21 528.878 1064.56 555.526 1031.69 555.526C998.819 555.526 972.171 528.878 972.171 496.006C972.171 463.133 998.819 436.485 1031.69 436.485C1064.56 436.485 1091.21 463.133 1091.21 496.006ZM2625.16 660.296C2629.48 655.066 2636.19 652.416 2642.93 653.281C2649.67 654.138 2655.48 658.392 2658.36 664.55C2680.13 711.151 2720.23 797.194 2720.23 797.194C2721.42 799.741 2722.08 802.575 2722.08 805.558C2722.08 816.502 2713.19 825.399 2702.23 825.399H2622.87C2614.99 825.399 2608.16 820.78 2604.97 814.098C2604.97 814.098 2580.21 762.331 2568.07 736.927C2564.23 728.888 2566.21 719.277 2572.92 713.421C2592.68 696.088 2610.06 678.208 2625.16 660.296ZM1991.96 805.559C1991.96 750.807 2036.41 706.357 2091.16 706.357H2111C2134.9 706.365 2158.06 705.715 2180.46 704.469C2191.38 703.858 2202.11 703.111 2212.66 702.231C2261.08 698.175 2305.76 691.279 2346.72 682.2C2412.02 667.717 2467.86 647.662 2514.37 624.656C2552.99 605.553 2585.16 584.42 2610.96 562.754C2652.88 527.534 2677.95 490.901 2686.41 459.283C2690.33 444.625 2690.69 431.039 2687.49 419.174C2685 409.944 2680.36 401.747 2673.57 394.906C2672.99 394.318 2672.39 393.739 2671.77 393.168C2669.72 391.334 2667.56 389.597 2665.31 387.978C2657.11 382.264 2646.86 377.946 2634.56 375.335C2633.65 375.129 2633 374.312 2633.02 373.383C2633.04 372.447 2633.71 371.661 2634.63 371.486C2647.53 368.915 2659.3 363.201 2669.11 355.186C2671.19 353.487 2673.18 351.686 2675.09 349.789C2685.55 339.321 2693.1 325.957 2696.44 311.005C2696.63 310.108 2697.42 309.458 2698.34 309.466C2699.25 309.466 2700.05 310.108 2700.23 311.005C2703.58 325.957 2711.13 339.321 2721.59 349.789C2723.49 351.686 2725.49 353.487 2727.57 355.186C2736.96 362.852 2748.14 368.415 2760.38 371.145C2761.28 371.335 2761.93 372.129 2761.92 373.049C2761.92 373.97 2761.27 374.756 2760.37 374.946C2746.11 378.129 2733.29 385.144 2723.06 394.866C2722.57 395.334 2722.08 395.81 2721.59 396.294C2720.87 397.017 2720.13 397.723 2719.48 398.501C2695.71 426.428 2704.25 474.957 2689.65 511.923C2677.93 541.596 2658.95 574.793 2632.13 608.18C2609.35 636.536 2580.89 665.026 2546.4 691.62C2481.84 741.379 2396.12 784.472 2286.78 807.527C2267.13 811.669 2246.71 815.169 2225.51 817.939C2213.59 819.494 2201.43 820.827 2189.02 821.915C2184.96 822.264 2180.87 822.597 2176.75 822.899C2155.54 824.454 2133.63 825.311 2111 825.399H2011.8C2000.85 825.399 1991.96 816.51 1991.96 805.559ZM753.928 337.286C753.928 348.243 745.046 357.126 734.088 357.126C723.131 357.126 714.248 348.243 714.248 337.286C714.248 326.328 723.131 317.445 734.088 317.445C745.046 317.445 753.928 326.328 753.928 337.286ZM892.81 805.515C892.81 816.472 883.927 825.355 872.97 825.355C862.012 825.355 853.129 816.472 853.129 805.515C853.129 794.557 862.012 785.675 872.97 785.675C883.927 785.675 892.81 794.557 892.81 805.515ZM972.171 805.515C972.171 816.472 963.288 825.355 952.331 825.355C941.373 825.355 932.49 816.472 932.49 805.515C932.49 794.557 941.373 785.675 952.331 785.675C963.288 785.675 972.171 794.557 972.171 805.515ZM325.38 805.515C325.38 816.472 316.497 825.355 305.539 825.355C294.582 825.355 285.699 816.472 285.699 805.515C285.699 794.557 294.582 785.675 305.539 785.675C316.497 785.675 325.38 794.557 325.38 805.515ZM432.517 474.185C432.517 495.004 415.639 511.882 394.82 511.882C374.001 511.882 357.124 495.004 357.124 474.185C357.124 453.366 374.001 436.489 394.82 436.489C415.639 436.489 432.517 453.366 432.517 474.185ZM1944.34 726.154C1944.34 737.111 1935.46 745.994 1924.5 745.994C1913.54 745.994 1904.66 737.111 1904.66 726.154C1904.66 715.197 1913.54 706.314 1924.5 706.314C1935.46 706.314 1944.34 715.197 1944.34 726.154ZM2282.89 641.163C2282.89 652.121 2274 661.003 2263.05 661.003C2252.09 661.003 2243.21 652.121 2243.21 641.163C2243.21 630.206 2252.09 621.323 2263.05 621.323C2274 621.323 2282.89 630.206 2282.89 641.163ZM2372.29 624.193C2372.29 635.151 2363.4 644.034 2352.45 644.034C2341.49 644.034 2332.61 635.151 2332.61 624.193C2332.61 613.236 2341.49 604.353 2352.45 604.353C2363.4 604.353 2372.29 613.236 2372.29 624.193ZM2529.59 568.976C2529.59 579.934 2520.71 588.817 2509.75 588.817C2498.79 588.817 2489.91 579.934 2489.91 568.976C2489.91 558.019 2498.79 549.136 2509.75 549.136C2520.71 549.136 2529.59 558.019 2529.59 568.976ZM2593.59 530.048C2593.59 541.006 2584.7 549.888 2573.75 549.888C2562.79 549.888 2553.91 541.006 2553.91 530.048C2553.91 519.091 2562.79 510.208 2573.75 510.208C2584.7 510.208 2593.59 519.091 2593.59 530.048ZM2722.08 805.515C2722.08 816.472 2713.2 825.355 2702.24 825.355C2691.28 825.355 2682.4 816.472 2682.4 805.515C2682.4 794.557 2691.28 785.675 2702.24 785.675C2713.2 785.675 2722.08 794.557 2722.08 805.515ZM2660.31 672.908C2660.31 683.865 2651.43 692.748 2640.47 692.748C2629.51 692.748 2620.63 683.865 2620.63 672.908C2620.63 661.951 2629.51 653.068 2640.47 653.068C2651.43 653.068 2660.31 661.951 2660.31 672.908ZM2605.86 728.207C2605.86 739.164 2596.98 748.047 2586.02 748.047C2575.06 748.047 2566.18 739.164 2566.18 728.207C2566.18 717.249 2575.06 708.367 2586.02 708.367C2596.98 708.367 2605.86 717.249 2605.86 728.207ZM2642.72 805.515C2642.72 816.472 2633.83 825.355 2622.88 825.355C2611.92 825.355 2603.04 816.472 2603.04 805.515C2603.04 794.557 2611.92 785.675 2622.88 785.675C2633.83 785.675 2642.72 794.557 2642.72 805.515ZM666.631 337.377C666.631 348.334 657.749 357.217 646.791 357.217C635.834 357.217 626.951 348.334 626.951 337.377C626.951 326.419 635.834 317.537 646.791 317.537C657.749 317.537 666.631 326.419 666.631 337.377ZM1111.05 337.377C1111.05 348.334 1102.17 357.217 1091.21 357.217C1080.25 357.217 1071.37 348.334 1071.37 337.377C1071.37 326.419 1080.25 317.537 1091.21 317.537C1102.17 317.537 1111.05 326.419 1111.05 337.377ZM1539.6 337.377C1539.6 348.334 1530.72 357.217 1519.76 357.217C1508.8 357.217 1499.92 348.334 1499.92 337.377C1499.92 326.419 1508.8 317.537 1519.76 317.537C1530.72 317.537 1539.6 326.419 1539.6 337.377ZM1515.79 531.811C1515.79 542.768 1506.91 551.651 1495.95 551.651C1485 551.651 1476.11 542.768 1476.11 531.811C1476.11 520.853 1485 511.971 1495.95 511.971C1506.91 511.971 1515.79 520.853 1515.79 531.811ZM1539.6 726.245C1539.6 737.203 1530.72 746.085 1519.76 746.085C1508.8 746.085 1499.92 737.203 1499.92 726.245C1499.92 715.288 1508.8 706.405 1519.76 706.405C1530.72 706.405 1539.6 715.288 1539.6 726.245ZM1301.52 499.972C1301.52 506.546 1296.19 511.876 1289.61 511.876C1283.04 511.876 1277.71 506.546 1277.71 499.972C1277.71 493.397 1283.04 488.067 1289.61 488.067C1296.19 488.067 1301.52 493.397 1301.52 499.972ZM1301.52 694.36C1301.52 700.935 1296.19 706.264 1289.61 706.264C1283.04 706.264 1277.71 700.935 1277.71 694.36C1277.71 687.786 1283.04 682.456 1289.61 682.456C1296.19 682.456 1301.52 687.786 1301.52 694.36ZM1730.07 694.36C1730.07 700.935 1724.74 706.264 1718.16 706.264C1711.59 706.264 1706.26 700.935 1706.26 694.36C1706.26 687.786 1711.59 682.456 1718.16 682.456C1724.74 682.456 1730.07 687.786 1730.07 694.36ZM1301.52 642.821C1301.52 649.396 1296.19 654.725 1289.61 654.725C1283.04 654.725 1277.71 649.396 1277.71 642.821C1277.71 636.247 1283.04 630.917 1289.61 630.917C1296.19 630.917 1301.52 636.247 1301.52 642.821Z" stroke="black" stroke-width="6.62968" stroke-miterlimit="1.5" stroke-linecap="round" stroke-linejoin="round"/>
</svg>
